<svg width="44" height="44" viewBox="0 0 44 44" fill="none" xmlns="http://www.w3.org/2000/svg">
<path fill-rule="evenodd" clip-rule="evenodd" d="M29.6223 15.0937C29.6223 19.4015 26.1881 22.8556 21.9053 22.8556C17.6224 22.8556 14.1882 19.4015 14.1882 15.0937C14.1882 10.7843 17.6224 7.3335 21.9053 7.3335C26.1881 7.3335 29.6223 10.7843 29.6223 15.0937ZM21.9053 36.6668C15.6147 36.6668 10.2435 35.6696 10.2435 31.6805C10.2435 27.6897 15.5803 26.6561 21.9053 26.6561C28.1958 26.6561 33.567 27.6534 33.567 31.6441C33.567 35.6332 28.2302 36.6668 21.9053 36.6668ZM32.92 15.2337C32.92 17.4297 32.265 19.4754 31.1159 21.1761C30.9978 21.3511 31.1028 21.5872 31.3113 21.6235C31.5986 21.6731 31.8957 21.7011 32.1977 21.7094C35.21 21.7887 37.9137 19.8387 38.6606 16.903C39.767 12.5424 36.5184 8.62764 32.3816 8.62764C31.9318 8.62764 31.5017 8.67552 31.0831 8.76138C31.0257 8.77459 30.9649 8.80101 30.9321 8.85219C30.8927 8.91493 30.9222 8.99914 30.9616 9.05363C32.2043 10.8055 32.92 12.942 32.92 15.2337ZM37.9088 24.7732C39.9328 25.1711 41.2641 25.9835 41.8157 27.164C42.2819 28.1332 42.2819 29.2576 41.8157 30.2252C40.9719 32.0563 38.2519 32.6441 37.1947 32.796C36.9764 32.829 36.8007 32.6391 36.8237 32.4195C37.3638 27.3456 33.0678 24.94 31.9564 24.3868C31.9088 24.3621 31.899 24.3241 31.9039 24.301C31.9072 24.2845 31.9269 24.2581 31.963 24.2531C34.3679 24.2085 36.9534 24.5387 37.9088 24.7732ZM11.8001 21.7092C12.1021 21.701 12.3976 21.6746 12.6865 21.6234C12.895 21.5871 13.0001 21.3509 12.8819 21.1759C11.7328 19.4753 11.0778 17.4296 11.0778 15.2336C11.0778 12.9418 11.7935 10.8053 13.0362 9.05346C13.0756 8.99897 13.1035 8.91477 13.0657 8.85202C13.0329 8.80249 12.9705 8.77442 12.9147 8.76121C12.4944 8.67535 12.0644 8.62747 11.6146 8.62747C7.47781 8.62747 4.22914 12.5423 5.3372 16.9028C6.08411 19.8385 8.78778 21.7885 11.8001 21.7092ZM12.0931 24.3C12.098 24.3248 12.0882 24.3611 12.0422 24.3875C10.9292 24.9406 6.63322 27.3463 7.1733 32.4185C7.19628 32.6398 7.02227 32.828 6.80394 32.7966C5.74677 32.6447 3.02668 32.0569 2.18292 30.2258C1.71507 29.2566 1.71507 28.1339 2.18292 27.1647C2.73449 25.9841 4.06416 25.1718 6.08822 24.7722C7.04525 24.5394 9.62909 24.2092 12.0356 24.2538C12.0717 24.2587 12.0898 24.2851 12.0931 24.3Z" fill="#3F53D8"/>
</svg>
