<svg width="44" height="44" viewBox="0 0 44 44" fill="none" xmlns="http://www.w3.org/2000/svg">
<path fill-rule="evenodd" clip-rule="evenodd" d="M31.4982 8.08484C31.4982 5.6465 33.4782 3.6665 35.9165 3.6665C38.3548 3.6665 40.3348 5.6465 40.3348 8.08484C40.3348 10.5232 38.3548 12.5032 35.9165 12.5032C33.4782 12.5032 31.4982 10.5232 31.4982 8.08484ZM24.4396 27.0586L29.738 20.2221L29.6646 20.2587C29.958 19.8554 30.013 19.3421 29.8113 18.8837C29.6115 18.4254 29.1696 18.1137 28.6948 18.0771C28.198 18.0221 27.7048 18.2421 27.4096 18.6454L22.9748 24.3837L17.8946 20.3871C17.583 20.1487 17.2163 20.0552 16.8496 20.0937C16.4848 20.1487 16.1548 20.3486 15.933 20.6419L10.5081 27.7021L10.3963 27.8671C10.0846 28.4519 10.2313 29.2036 10.7813 29.6087C11.038 29.7737 11.313 29.8837 11.6246 29.8837C12.0481 29.9021 12.4496 29.6802 12.7063 29.3337L17.308 23.4102L22.533 27.3354L22.698 27.4436C23.2846 27.7552 24.018 27.6104 24.4396 27.0586ZM28.3263 6.93039C28.253 7.38872 28.2163 7.84705 28.2163 8.30539C28.2163 12.4304 31.553 15.7652 35.6596 15.7652C36.118 15.7652 36.558 15.7121 37.0163 15.6387V30.4319C37.0163 36.6487 33.3496 40.3337 27.1163 40.3337H13.5698C7.33464 40.3337 3.66797 36.6487 3.66797 30.4319V16.8671C3.66797 10.6337 7.33464 6.93039 13.5698 6.93039H28.3263Z" fill="#3F53D8"/>
</svg>
