<svg width="44" height="44" viewBox="0 0 44 44" fill="none" xmlns="http://www.w3.org/2000/svg">
<path fill-rule="evenodd" clip-rule="evenodd" d="M31.4963 8.08502C31.4963 5.64669 33.4763 3.66669 35.9147 3.66669C38.353 3.66669 40.333 5.64669 40.333 8.08502C40.333 10.5234 38.353 12.5034 35.9147 12.5034C33.4763 12.5034 31.4963 10.5234 31.4963 8.08502ZM24.4378 27.0587L29.7361 20.2222L29.6628 20.2589C29.9561 19.8556 30.0111 19.3422 29.8095 18.8839C29.6096 18.4256 29.1678 18.1139 28.693 18.0772C28.1961 18.0222 27.703 18.2422 27.4078 18.6456L22.973 24.3839L17.8928 20.3872C17.5811 20.1489 17.2145 20.0554 16.8478 20.0939C16.483 20.1489 16.153 20.3487 15.9311 20.6421L10.5063 27.7022L10.3945 27.8672C10.0828 28.4521 10.2295 29.2037 10.7795 29.6089C11.0361 29.7739 11.3111 29.8839 11.6228 29.8839C12.0463 29.9022 12.4478 29.6804 12.7045 29.3339L17.3061 23.4104L22.5311 27.3356L22.6961 27.4437C23.2828 27.7554 24.0161 27.6106 24.4378 27.0587ZM28.3245 6.93057C28.2511 7.3889 28.2145 7.84724 28.2145 8.30557C28.2145 12.4306 31.5511 15.7654 35.6578 15.7654C36.1161 15.7654 36.5561 15.7122 37.0145 15.6389V30.4321C37.0145 36.6489 33.3478 40.3339 27.1145 40.3339H13.568C7.3328 40.3339 3.66614 36.6489 3.66614 30.4321V16.8672C3.66614 10.6339 7.3328 6.93057 13.568 6.93057H28.3245Z" fill="#080829"/>
</svg>
