<svg width="48" height="48" viewBox="0 0 48 48" fill="none" xmlns="http://www.w3.org/2000/svg">
<path opacity="0.2" d="M39 9H9C8.20435 9.00001 7.4413 9.31608 6.87869 9.87869C6.31608 10.4413 6.00001 11.2044 6 12V33C6.00001 33.7956 6.31608 34.5587 6.87869 35.1213C7.4413 35.6839 8.20435 36 9 36H18.8573L24.0005 30L29.1431 36H39C39.7956 36 40.5587 35.6839 41.1213 35.1213C41.6839 34.5587 42 33.7956 42 33V12C42 11.2044 41.6839 10.4413 41.1213 9.87869C40.5587 9.31608 39.7956 9.00001 39 9Z" fill="#080829"/>
<path d="M24.0004 30L33 40.5H15L24.0004 30Z" stroke="#080829" stroke-width="3" stroke-linecap="round" stroke-linejoin="round"/>
<path d="M12 36H9C8.20435 36 7.44129 35.6839 6.87868 35.1213C6.31607 34.5587 6 33.7956 6 33V12C6 11.2044 6.31607 10.4413 6.87868 9.87868C7.44129 9.31607 8.20435 9 9 9H39C39.7956 9 40.5587 9.31607 41.1213 9.87868C41.6839 10.4413 42 11.2044 42 12V33C42 33.7956 41.6839 34.5587 41.1213 35.1213C40.5587 35.6839 39.7956 36 39 36H36" stroke="#080829" stroke-width="3" stroke-linecap="round" stroke-linejoin="round"/>
</svg>
