<svg width="48" height="48" viewBox="0 0 48 48" fill="none" xmlns="http://www.w3.org/2000/svg">
<path d="M13.5 40.5H40.5" stroke="#080829" stroke-width="3" stroke-linecap="round" stroke-linejoin="round"/>
<path d="M5.01563 15H8.24958L11.9996 19.5H17.9996L15.6577 12.4743C15.5825 12.2489 15.562 12.0087 15.5979 11.7738C15.6337 11.5388 15.7249 11.3157 15.8639 11.1229C16.0028 10.9301 16.1856 10.7731 16.3972 10.6648C16.6088 10.5565 16.843 10.5 17.0807 10.5H20.2496L28.4996 19.5H38.9996C40.5909 19.5 42.117 20.1321 43.2422 21.2574C44.3674 22.3826 44.9996 23.9087 44.9996 25.5V30H11.9638C10.6734 30 9.41743 29.584 8.38218 28.8138C7.34694 28.0435 6.58759 26.96 6.21681 25.7241L3.57889 16.931C3.51169 16.707 3.4978 16.4705 3.5383 16.2402C3.57881 16.0099 3.6726 15.7922 3.81219 15.6046C3.95177 15.417 4.13329 15.2646 4.34224 15.1596C4.55119 15.0547 4.78179 15 5.01563 15Z" stroke="#080829" stroke-width="3" stroke-linecap="round" stroke-linejoin="round"/>
</svg>
