<svg width="48" height="48" viewBox="0 0 48 48" fill="none" xmlns="http://www.w3.org/2000/svg">
<path opacity="0.2" d="M40.5 9.0011H7.5C6.67157 9.0011 6 9.67267 6 10.5011V37.5011C6 38.3295 6.67157 39.0011 7.5 39.0011H40.5C41.3284 39.0011 42 38.3295 42 37.5011V10.5011C42 9.67267 41.3284 9.0011 40.5 9.0011Z" fill="#080829"/>
<path d="M40.5 9.0011H7.5C6.67157 9.0011 6 9.67267 6 10.5011V37.5011C6 38.3295 6.67157 39.0011 7.5 39.0011H40.5C41.3284 39.0011 42 38.3295 42 37.5011V10.5011C42 9.67267 41.3284 9.0011 40.5 9.0011Z" stroke="#080829" stroke-width="3" stroke-linecap="round" stroke-linejoin="round"/>
<path d="M12.75 18.0011C13.9926 18.0011 15 16.9937 15 15.7511C15 14.5085 13.9926 13.5011 12.75 13.5011C11.5074 13.5011 10.5 14.5085 10.5 15.7511C10.5 16.9937 11.5074 18.0011 12.75 18.0011Z" fill="#080829"/>
<path d="M20.25 18.0011C21.4926 18.0011 22.5 16.9937 22.5 15.7511C22.5 14.5085 21.4926 13.5011 20.25 13.5011C19.0074 13.5011 18 14.5085 18 15.7511C18 16.9937 19.0074 18.0011 20.25 18.0011Z" fill="#080829"/>
</svg>
