<svg width="48" height="48" viewBox="0 0 48 48" fill="none" xmlns="http://www.w3.org/2000/svg">
<path d="M42 10.5H6C5.17157 10.5 4.5 11.1716 4.5 12V16.5C4.5 17.3284 5.17157 18 6 18H42C42.8284 18 43.5 17.3284 43.5 16.5V12C43.5 11.1716 42.8284 10.5 42 10.5Z" stroke="#080829" stroke-width="3" stroke-linecap="round" stroke-linejoin="round"/>
<path d="M40.5 18V36C40.5 36.3978 40.342 36.7794 40.0607 37.0607C39.7794 37.342 39.3978 37.5 39 37.5H9C8.60218 37.5 8.22064 37.342 7.93934 37.0607C7.65804 36.7794 7.5 36.3978 7.5 36V18" stroke="#080829" stroke-width="3" stroke-linecap="round" stroke-linejoin="round"/>
<path d="M19.5 25.5H28.5" stroke="#080829" stroke-width="3" stroke-linecap="round" stroke-linejoin="round"/>
</svg>
