<svg width="60" height="60" viewBox="0 0 60 60" fill="none" xmlns="http://www.w3.org/2000/svg">
<circle cx="30" cy="30" r="30" fill="url(#paint0_linear_765_1407)"/>
<path d="M39.7793 28.7198L26.2822 20.4712C26.0549 20.3322 25.7946 20.2563 25.5282 20.2512C25.2617 20.2462 24.9988 20.3122 24.7663 20.4425C24.5339 20.5728 24.3404 20.7627 24.2057 20.9927C24.071 21.2226 24 21.4843 24 21.7508V38.2493C24.0002 38.5157 24.0714 38.7772 24.2061 39.007C24.3408 39.2368 24.5343 39.4266 24.7667 39.5569C24.9991 39.6872 25.2619 39.7532 25.5283 39.7483C25.7946 39.7434 26.0548 39.6676 26.2822 39.5288L39.7793 31.2803C39.9986 31.1462 40.1797 30.9581 40.3054 30.7339C40.4311 30.5097 40.4971 30.257 40.4971 30C40.4971 29.743 40.4311 29.4903 40.3054 29.2661C40.1797 29.042 39.9986 28.8538 39.7793 28.7198Z" fill="white"/>
<defs>
<linearGradient id="paint0_linear_765_1407" x1="0" y1="0" x2="60" y2="72.375" gradientUnits="userSpaceOnUse">
<stop stop-color="#3F53D8"/>
<stop offset="1" stop-color="#8090FE"/>
</linearGradient>
</defs>
</svg>
