<svg width="28" height="26" viewBox="0 0 28 26" fill="none" xmlns="http://www.w3.org/2000/svg">
<path d="M26.9378 9.80055C26.8173 9.42306 26.5854 9.09058 26.2725 8.84648C25.9596 8.60238 25.5803 8.458 25.1839 8.43218L18.0152 7.93185L15.356 1.25364C15.2121 0.884432 14.9597 0.567196 14.6319 0.343496C14.3041 0.119796 13.9162 6.74844e-05 13.5191 0H13.5172C13.1206 0.000705435 12.7335 0.120739 12.4064 0.344405C12.0793 0.568071 11.8276 0.88496 11.684 1.25364L8.98516 7.97041L1.85614 8.43218C1.45975 8.458 1.08035 8.60238 0.767472 8.84648C0.454588 9.09058 0.222741 9.42306 0.102178 9.80055C-0.0250069 10.1834 -0.033659 10.5956 0.0773488 10.9834C0.188357 11.3712 0.41388 11.7167 0.724553 11.9749L6.20899 16.5982L4.57761 22.998C4.46517 23.4291 4.48585 23.884 4.63694 24.3032C4.78803 24.7224 5.0625 25.0863 5.42442 25.3473C5.77384 25.6009 6.19169 25.7436 6.6236 25.757C7.0555 25.7705 7.48145 25.6539 7.84602 25.4226L13.504 21.8479C13.5115 21.8422 13.5191 21.8385 13.536 21.8479L19.624 25.6943C19.9545 25.9049 20.341 26.0112 20.7331 25.9991C21.1251 25.987 21.5043 25.8572 21.8211 25.6266C22.1491 25.3902 22.3978 25.0606 22.5348 24.6808C22.6717 24.3011 22.6905 23.889 22.5887 23.4984L20.8555 16.507L26.3154 11.9749C26.6261 11.7167 26.8516 11.3712 26.9627 10.9834C27.0737 10.5956 27.065 10.1834 26.9378 9.80055Z" fill="#3F53D8"/>
</svg>
