<svg width="48" height="48" viewBox="0 0 48 48" fill="none" xmlns="http://www.w3.org/2000/svg">
<path fill-rule="evenodd" clip-rule="evenodd" d="M17.8 4H30.14C35.56 4 39.94 6.14 40 11.58V41.94C40 42.28 39.92 42.62 39.76 42.92C39.5 43.4 39.06 43.76 38.52 43.92C38 44.08 37.42 44 36.94 43.72L23.98 37.24L11 43.72C10.702 43.878 10.36 43.98 10.02 43.98C8.9 43.98 8 43.06 8 41.94V11.58C8 6.14 12.4 4 17.8 4ZM16.44 19.24H31.5C32.36 19.24 33.06 18.538 33.06 17.66C33.06 16.78 32.36 16.08 31.5 16.08H16.44C15.58 16.08 14.88 16.78 14.88 17.66C14.88 18.538 15.58 19.24 16.44 19.24Z" fill="#130F26"/>
</svg>
