<svg width="48" height="48" viewBox="0 0 48 48" fill="none" xmlns="http://www.w3.org/2000/svg">
<path fill-rule="evenodd" clip-rule="evenodd" d="M9.08 4H15.84C18.66 4 20.92 6.3 20.92 9.122V15.94C20.92 18.78 18.66 21.06 15.84 21.06H9.08C6.28 21.06 4 18.78 4 15.94V9.122C4 6.3 6.28 4 9.08 4ZM9.08 26.9394H15.84C18.66 26.9394 20.92 29.2214 20.92 32.0614V38.8794C20.92 41.6994 18.66 43.9994 15.84 43.9994H9.08C6.28 43.9994 4 41.6994 4 38.8794V32.0614C4 29.2214 6.28 26.9394 9.08 26.9394ZM38.9202 4H32.1602C29.3402 4 27.0802 6.3 27.0802 9.122V15.94C27.0802 18.78 29.3402 21.06 32.1602 21.06H38.9202C41.7202 21.06 44.0002 18.78 44.0002 15.94V9.122C44.0002 6.3 41.7202 4 38.9202 4ZM32.1602 26.9394H38.9202C41.7202 26.9394 44.0002 29.2214 44.0002 32.0614V38.8794C44.0002 41.6994 41.7202 43.9994 38.9202 43.9994H32.1602C29.3402 43.9994 27.0802 41.6994 27.0802 38.8794V32.0614C27.0802 29.2214 29.3402 26.9394 32.1602 26.9394Z" fill="#130F26"/>
</svg>
