<svg width="44" height="44" viewBox="0 0 44 44" fill="none" xmlns="http://www.w3.org/2000/svg">
<path fill-rule="evenodd" clip-rule="evenodd" d="M13.4396 3.66748H30.5611C36.7963 3.66748 40.3163 7.20398 40.3346 13.4391V30.5625C40.3346 36.7958 36.7963 40.3341 30.5611 40.3341H13.4396C7.20447 40.3341 3.66797 36.7958 3.66797 30.5625V13.4391C3.66797 7.20398 7.20447 3.66748 13.4396 3.66748ZM22.0911 32.7441C22.8813 32.7441 23.5395 32.1575 23.6128 31.3691V12.6875C23.6861 12.1191 23.413 11.549 22.918 11.2391C22.4028 10.9275 21.7795 10.9275 21.2863 11.2391C20.7895 11.549 20.5163 12.1191 20.5695 12.6875V31.3691C20.663 32.1575 21.3211 32.7441 22.0911 32.7441ZM30.5263 32.7441C31.2963 32.7441 31.9545 32.1575 32.048 31.3691V25.3558C32.1011 24.7673 31.828 24.2191 31.3311 23.9075C30.838 23.5958 30.2146 23.5958 29.7013 23.9075C29.2045 24.2191 28.9313 24.7673 29.0046 25.3558V31.3691C29.078 32.1575 29.7361 32.7441 30.5263 32.7441ZM15.0695 31.3691C14.9961 32.1575 14.338 32.7441 13.5478 32.7441C12.7595 32.7441 12.0995 32.1575 12.028 31.3691V18.7008C11.973 18.1306 12.2461 17.5641 12.743 17.2525C13.2361 16.9408 13.8613 16.9408 14.3563 17.2525C14.8495 17.5641 15.1263 18.1306 15.0695 18.7008V31.3691Z" fill="#3F53D8"/>
</svg>
