<svg width="44" height="44" viewBox="0 0 44 44" fill="none" xmlns="http://www.w3.org/2000/svg">
<path fill-rule="evenodd" clip-rule="evenodd" d="M13.439 3.66742H30.5605C36.7957 3.66742 40.3157 7.20392 40.334 13.4391V30.5624C40.334 36.7958 36.7957 40.3341 30.5605 40.3341H13.439C7.20386 40.3341 3.66736 36.7958 3.66736 30.5624V13.4391C3.66736 7.20392 7.20386 3.66742 13.439 3.66742ZM22.0905 32.7441C22.8807 32.7441 23.5389 32.1574 23.6122 31.3691V12.6874C23.6855 12.1191 23.4124 11.5489 22.9174 11.2391C22.4022 10.9274 21.7789 10.9274 21.2857 11.2391C20.7889 11.5489 20.5157 12.1191 20.5689 12.6874V31.3691C20.6624 32.1574 21.3205 32.7441 22.0905 32.7441ZM30.5257 32.7441C31.2957 32.7441 31.9539 32.1574 32.0474 31.3691V25.3558C32.1005 24.7673 31.8274 24.2191 31.3305 23.9074C30.8374 23.5958 30.214 23.5958 29.7007 23.9074C29.2039 24.2191 28.9307 24.7673 29.004 25.3558V31.3691C29.0774 32.1574 29.7355 32.7441 30.5257 32.7441ZM15.0689 31.3691C14.9955 32.1574 14.3374 32.7441 13.5472 32.7441C12.7589 32.7441 12.0989 32.1574 12.0274 31.3691V18.7008C11.9724 18.1306 12.2455 17.5641 12.7424 17.2524C13.2355 16.9408 13.8607 16.9408 14.3557 17.2524C14.8489 17.5641 15.1257 18.1306 15.0689 18.7008V31.3691Z" fill="#080829"/>
</svg>
