<svg width="24" height="24" viewBox="0 0 24 24" fill="none" xmlns="http://www.w3.org/2000/svg">
<path d="M4.5 3.7501L19.5 20.2501" stroke="#0D0E10" stroke-width="1.5" stroke-linecap="round" stroke-linejoin="round"/>
<path d="M14.5223 14.7749C13.7864 15.4438 12.8149 15.793 11.8215 15.7456C10.8281 15.6983 9.89422 15.2583 9.22524 14.5224C8.55626 13.7865 8.20698 12.815 8.25424 11.8217C8.3015 10.8283 8.74142 9.89434 9.47724 9.22529" stroke="#0D0E10" stroke-width="1.5" stroke-linecap="round" stroke-linejoin="round"/>
<path d="M6.93698 6.43076C3.11486 8.36628 1.5 12.0001 1.5 12.0001C1.5 12.0001 4.5 18.7494 12 18.7494C13.7572 18.7634 15.4926 18.3586 17.0623 17.5686" stroke="#0D0E10" stroke-width="1.5" stroke-linecap="round" stroke-linejoin="round"/>
<path d="M19.5547 15.8532C21.5986 14.0225 22.4976 12.0001 22.4976 12.0001C22.4976 12.0001 19.4976 5.24938 11.9976 5.24938C11.348 5.24832 10.6994 5.30113 10.0586 5.40727" stroke="#0D0E10" stroke-width="1.5" stroke-linecap="round" stroke-linejoin="round"/>
<path d="M12.707 8.31646C13.5041 8.4695 14.23 8.87685 14.7759 9.47739C15.3219 10.0779 15.6584 10.8393 15.735 11.6473" stroke="#0D0E10" stroke-width="1.5" stroke-linecap="round" stroke-linejoin="round"/>
</svg>
