<svg width="44" height="44" viewBox="0 0 44 44" fill="none" xmlns="http://www.w3.org/2000/svg">
<path fill-rule="evenodd" clip-rule="evenodd" d="M24.6596 8.94682H30.288C37.053 8.94682 40.353 12.5585 40.3346 19.9652V28.8935C40.3346 35.9701 35.9713 40.3335 28.8763 40.3335H15.108C8.04963 40.3335 3.66797 35.9701 3.66797 28.8751V15.1068C3.66797 7.51682 7.0413 3.66682 13.6963 3.66682H16.593C18.2998 3.64848 19.893 4.43682 20.938 5.77515L22.5513 7.92015C23.0646 8.56182 23.8346 8.94682 24.6596 8.94682ZM13.513 28.0318H30.4896C31.2413 28.0318 31.8463 27.4085 31.8463 26.6568C31.8463 25.8868 31.2413 25.2818 30.4896 25.2818H13.513C12.743 25.2818 12.138 25.8868 12.138 26.6568C12.138 27.4085 12.743 28.0318 13.513 28.0318Z" fill="#3F53D8"/>
</svg>
