<svg width="70" height="70" viewBox="0 0 70 70" fill="none" xmlns="http://www.w3.org/2000/svg">
<circle cx="35" cy="35" r="34.5" stroke="#3F53D8" stroke-dasharray="5 5"/>
<path d="M25.3518 41.168C24.6145 41.168 23.9378 41.0373 23.3218 40.776C22.7058 40.5053 22.1691 40.132 21.7118 39.656C21.2638 39.1707 20.9138 38.6013 20.6618 37.948C20.4098 37.2947 20.2838 36.576 20.2838 35.792C20.2838 35.008 20.4098 34.2893 20.6618 33.636C20.9138 32.9827 21.2638 32.4133 21.7118 31.928C22.1691 31.4427 22.7058 31.0693 23.3218 30.808C23.9378 30.5373 24.6145 30.402 25.3518 30.402C26.0611 30.402 26.6958 30.528 27.2558 30.78C27.8251 31.032 28.3011 31.3587 28.6838 31.76C29.0758 32.152 29.3558 32.5673 29.5238 33.006L28.4738 33.468C28.2125 32.8613 27.8111 32.376 27.2698 32.012C26.7378 31.6387 26.0985 31.452 25.3518 31.452C24.5865 31.452 23.9051 31.634 23.3078 31.998C22.7105 32.362 22.2438 32.8707 21.9078 33.524C21.5718 34.168 21.4038 34.924 21.4038 35.792C21.4038 36.6507 21.5718 37.4067 21.9078 38.06C22.2438 38.7133 22.7105 39.222 23.3078 39.586C23.9051 39.9407 24.5865 40.118 25.3518 40.118C26.0985 40.118 26.7378 39.936 27.2698 39.572C27.8111 39.208 28.2125 38.7227 28.4738 38.116L29.5238 38.578C29.3558 39.0073 29.0758 39.4227 28.6838 39.824C28.3011 40.216 27.8251 40.538 27.2558 40.79C26.6958 41.042 26.0611 41.168 25.3518 41.168ZM31.0953 41V30.402H32.1453V41H31.0953ZM34.0145 41V33.496H35.0645V41H34.0145ZM34.0145 32.11V30.57H35.0645V32.11H34.0145ZM40.3637 41.168C39.6264 41.168 38.9777 40.9953 38.4177 40.65C37.8577 40.3047 37.4191 39.838 37.1017 39.25C36.7844 38.6527 36.6257 37.9807 36.6257 37.234C36.6257 36.4873 36.7844 35.82 37.1017 35.232C37.4191 34.644 37.8577 34.182 38.4177 33.846C38.9777 33.5007 39.6264 33.328 40.3637 33.328C40.8304 33.328 41.2691 33.412 41.6797 33.58C42.0904 33.748 42.4544 33.9767 42.7717 34.266C43.0891 34.546 43.3271 34.8727 43.4857 35.246L42.5337 35.736C42.3471 35.3347 42.0624 35.008 41.6797 34.756C41.2971 34.504 40.8584 34.378 40.3637 34.378C39.8691 34.378 39.4211 34.504 39.0197 34.756C38.6277 34.9987 38.3151 35.3393 38.0817 35.778C37.8577 36.2073 37.7457 36.6973 37.7457 37.248C37.7457 37.7893 37.8577 38.2793 38.0817 38.718C38.3151 39.1473 38.6277 39.488 39.0197 39.74C39.4211 39.992 39.8691 40.118 40.3637 40.118C40.8584 40.118 41.2924 39.992 41.6657 39.74C42.0484 39.488 42.3377 39.152 42.5337 38.732L43.4857 39.25C43.3271 39.614 43.0891 39.9407 42.7717 40.23C42.4544 40.5193 42.0904 40.748 41.6797 40.916C41.2691 41.084 40.8304 41.168 40.3637 41.168ZM45.0483 41V30.402H46.0983V37.822L45.6503 37.752L49.8643 33.496H51.2223L48.2823 36.506L51.4883 41H50.2283L47.2183 36.842L47.8903 36.898L45.7483 39.11L46.0983 38.242V41H45.0483Z" fill="#3F53D8"/>
</svg>
