<svg width="44" height="44" viewBox="0 0 44 44" fill="none" xmlns="http://www.w3.org/2000/svg">
<path fill-rule="evenodd" clip-rule="evenodd" d="M29.0597 4.58477C30.2165 4.58477 31.3715 4.74793 32.4697 5.11643C39.2365 7.31643 41.6748 14.7414 39.638 21.2314C38.483 24.5479 36.5947 27.5748 34.1215 30.0479C30.5813 33.4763 26.6965 36.5196 22.5147 39.1413L22.0563 39.4181L21.5797 39.1229C17.3832 36.5196 13.4763 33.4763 9.90317 30.0296C7.4465 27.5564 5.55633 24.5479 4.383 21.2314C2.31133 14.7414 4.74967 7.31643 11.5898 5.07793C12.1215 4.8946 12.6697 4.76627 13.2197 4.69477H13.4397C13.9548 4.6196 14.4663 4.58477 14.9797 4.58477H15.1813C16.3363 4.6196 17.4547 4.82127 18.5382 5.18977H18.6463C18.7197 5.2246 18.7747 5.2631 18.8113 5.29793C19.2165 5.4281 19.5997 5.57477 19.9663 5.77643L20.663 6.0881C20.8313 6.17788 21.0203 6.31507 21.1836 6.43363C21.2871 6.50875 21.3802 6.57639 21.4513 6.61977C21.4812 6.63742 21.5117 6.65516 21.5423 6.67306C21.6995 6.76482 21.8633 6.86041 22.0013 6.96627C24.0382 5.40977 26.5113 4.56643 29.0597 4.58477ZM33.9363 17.7848C34.688 17.7646 35.3297 17.1614 35.3847 16.3896V16.1714C35.4397 13.6029 33.8832 11.2764 31.5163 10.3781C30.7647 10.1196 29.9397 10.5248 29.6647 11.2948C29.408 12.0648 29.8113 12.9081 30.5813 13.1813C31.7565 13.6213 32.543 14.7781 32.543 16.0596V16.1164C32.5082 16.5363 32.6347 16.9414 32.8913 17.2531C33.148 17.5648 33.533 17.7463 33.9363 17.7848Z" fill="#3F53D8"/>
</svg>
