<svg width="80" height="80" viewBox="0 0 80 80" fill="none" xmlns="http://www.w3.org/2000/svg">
<rect opacity="0.3" width="80" height="80" rx="20" fill="#FFC123"/>
<path d="M43 58H37" stroke="#080829" stroke-width="2.5" stroke-linecap="round" stroke-linejoin="round"/>
<path d="M39.0576 19.7053C35.4965 22.558 23.5858 33.957 34.0006 51.9998H46.0006C56.1989 33.9698 44.4624 22.5741 40.9387 19.7114C40.6731 19.4955 40.3415 19.3771 39.9992 19.376C39.6569 19.3749 39.3246 19.4911 39.0576 19.7053V19.7053Z" stroke="#080829" stroke-width="2.5" stroke-linecap="round" stroke-linejoin="round"/>
<path d="M29.8498 36.8799L23.9717 43.9337C23.8249 44.1099 23.7204 44.3174 23.6663 44.5403C23.6122 44.7631 23.61 44.9955 23.6597 45.2193L25.9778 55.6506C26.033 55.8992 26.1507 56.1297 26.3197 56.3203C26.4887 56.5109 26.7034 56.6553 26.9437 56.7399C27.1839 56.8246 27.4418 56.8466 27.6929 56.804C27.9441 56.7614 28.1802 56.6556 28.3791 56.4965L33.9999 51.9999" stroke="#080829" stroke-width="2.5" stroke-linecap="round" stroke-linejoin="round"/>
<path d="M50.0371 36.7441L56.0282 43.9334C56.175 44.1096 56.2795 44.3171 56.3335 44.54C56.3876 44.7628 56.3899 44.9952 56.3401 45.219L54.0221 55.6503C53.9668 55.8989 53.8491 56.1294 53.6802 56.32C53.5112 56.5106 53.2964 56.655 53.0562 56.7396C52.8159 56.8243 52.5581 56.8463 52.3069 56.8037C52.0558 56.7611 51.8197 56.6553 51.6207 56.4962L46 51.9996" stroke="#080829" stroke-width="2.5" stroke-linecap="round" stroke-linejoin="round"/>
<path d="M40 36.25C41.2426 36.25 42.25 35.2426 42.25 34C42.25 32.7574 41.2426 31.75 40 31.75C38.7574 31.75 37.75 32.7574 37.75 34C37.75 35.2426 38.7574 36.25 40 36.25Z" fill="#080829"/>
</svg>
