<svg width="80" height="80" viewBox="0 0 80 80" fill="none" xmlns="http://www.w3.org/2000/svg">
<rect opacity="0.4" width="80" height="80" rx="20" fill="#FE7F51"/>
<path d="M40 22.125V57.875" stroke="#080829" stroke-width="2" stroke-linecap="round" stroke-linejoin="round"/>
<path d="M49.625 33.125C49.625 32.2222 49.4472 31.3282 49.1017 30.4941C48.7562 29.6599 48.2498 28.902 47.6114 28.2636C46.973 27.6252 46.2151 27.1188 45.3809 26.7733C44.5468 26.4278 43.6528 26.25 42.75 26.25H36.5625C34.7391 26.25 32.9905 26.9743 31.7011 28.2636C30.4118 29.553 29.6875 31.3016 29.6875 33.125C29.6875 34.9484 30.4118 36.697 31.7011 37.9864C32.9905 39.2757 34.7391 40 36.5625 40H44.125C45.9484 40 47.697 40.7243 48.9864 42.0136C50.2757 43.303 51 45.0516 51 46.875C51 48.6984 50.2757 50.447 48.9864 51.7364C47.697 53.0257 45.9484 53.75 44.125 53.75H35.875C34.0516 53.75 32.303 53.0257 31.0136 51.7364C29.7243 50.447 29 48.6984 29 46.875" stroke="#080829" stroke-width="2" stroke-linecap="round" stroke-linejoin="round"/>
</svg>
