<svg width="80" height="80" viewBox="0 0 80 80" fill="none" xmlns="http://www.w3.org/2000/svg">
<rect opacity="0.3" width="80" height="80" rx="20" fill="#A259FF"/>
<path d="M34.75 47.8738H23.9219C23.6608 47.8738 23.4104 47.7701 23.2258 47.5855C23.0412 47.4009 22.9375 47.1505 22.9375 46.8894V36.0612C22.9375 32.9284 24.182 29.9238 26.3973 27.7086C28.6126 25.4933 31.6171 24.2488 34.75 24.2488H34.75C37.8829 24.2488 40.8874 25.4933 43.1027 27.7086C45.318 29.9239 46.5625 32.9284 46.5625 36.0613V36.0613C46.5625 39.1942 45.318 42.1987 43.1027 44.414C40.8874 46.6293 37.8829 47.8738 34.75 47.8738V47.8738Z" stroke="#080829" stroke-width="2" stroke-linecap="round" stroke-linejoin="round"/>
<path d="M34.1094 47.8742C34.9245 50.1772 36.4334 52.1711 38.4284 53.5813C40.4234 54.9915 42.8064 55.7487 45.2495 55.7487H56.0777C56.3388 55.7487 56.5891 55.645 56.7737 55.4604C56.9583 55.2757 57.0621 55.0254 57.0621 54.7643V43.9361C57.062 40.915 55.9044 38.0087 53.8274 35.8148C51.7503 33.6209 48.9116 32.3062 45.895 32.141" stroke="#080829" stroke-width="2" stroke-linecap="round" stroke-linejoin="round"/>
</svg>
