<svg width="80" height="80" viewBox="0 0 80 80" fill="none" xmlns="http://www.w3.org/2000/svg">
<rect opacity="0.3" width="80" height="80" rx="20" fill="#96D0D6"/>
<path d="M25.7575 51.6902C25.8003 51.8709 25.8793 52.0411 25.9897 52.1906C26.1 52.34 26.2395 52.4655 26.3996 52.5597C26.5598 52.6538 26.7373 52.7146 26.9215 52.7383C27.1058 52.762 27.2929 52.7482 27.4717 52.6978C35.6683 50.4346 44.3248 50.4338 52.5218 52.6954C52.7005 52.7458 52.8876 52.7596 53.0717 52.7358C53.2559 52.7121 53.4333 52.6514 53.5934 52.5573C53.7535 52.4632 53.893 52.3378 54.0033 52.1884C54.1137 52.0391 54.1927 51.869 54.2356 51.6883L58.6165 33.0713C58.6751 32.8221 58.663 32.5615 58.5815 32.3187C58.5 32.076 58.3524 31.8609 58.1552 31.6975C57.9581 31.5342 57.7192 31.4291 57.4656 31.3942C57.2119 31.3593 56.9536 31.3959 56.7196 31.4999L48.0255 35.3639C47.7116 35.5035 47.3568 35.5204 47.031 35.4114C46.7052 35.3025 46.4319 35.0755 46.2651 34.7752L41.203 25.6634C41.0839 25.449 40.9096 25.2704 40.6983 25.146C40.487 25.0217 40.2462 24.9561 40.001 24.9561C39.7558 24.9561 39.515 25.0217 39.3037 25.146C39.0924 25.2704 38.9181 25.449 38.799 25.6634L33.7369 34.7752C33.5701 35.0755 33.2968 35.3025 32.971 35.4114C32.6452 35.5204 32.2904 35.5035 31.9765 35.3639L23.2811 31.4993C23.0472 31.3953 22.7889 31.3587 22.5353 31.3936C22.2817 31.4285 22.0428 31.5335 21.8457 31.6968C21.6485 31.86 21.5009 32.0751 21.4193 32.3177C21.3377 32.5604 21.3256 32.821 21.3841 33.0702L25.7575 51.6902Z" stroke="#080829" stroke-width="2" stroke-linecap="round" stroke-linejoin="round"/>
</svg>
