<svg width="80" height="80" viewBox="0 0 80 80" fill="none" xmlns="http://www.w3.org/2000/svg">
<rect opacity="0.3" width="80" height="80" rx="20" fill="#FFC123"/>
<path d="M27.659 37.2501C27.6545 35.6265 27.9703 34.0181 28.5885 32.5168C29.2066 31.0156 30.1149 29.6511 31.2613 28.5015C32.4077 27.3519 33.7697 26.4398 35.2692 25.8174C36.7687 25.1951 38.3763 24.8748 39.9998 24.8748C41.6233 24.8748 43.2309 25.1951 44.7304 25.8174C46.2299 26.4398 47.5919 27.3519 48.7383 28.5015C49.8847 29.6511 50.793 31.0156 51.4111 32.5168C52.0293 34.0181 52.3451 35.6265 52.3406 37.2501V37.2501C52.3406 43.4059 53.6285 46.978 54.7628 48.9304C54.885 49.139 54.95 49.3761 54.9513 49.6179C54.9526 49.8596 54.8901 50.0975 54.7702 50.3074C54.6502 50.5173 54.477 50.6919 54.2681 50.8135C54.0591 50.9351 53.8218 50.9994 53.58 51.0001H26.4182C26.1764 50.9994 25.939 50.9351 25.7301 50.8134C25.5211 50.6918 25.3479 50.5172 25.228 50.3072C25.108 50.0973 25.0456 49.8594 25.0469 49.6176C25.0482 49.3758 25.1133 49.1387 25.2356 48.9301C26.3705 46.9776 27.659 43.4056 27.659 37.2501H27.659Z" stroke="#080829" stroke-width="2" stroke-linecap="round" stroke-linejoin="round"/>
<path d="M34.5 51V52.375C34.5 53.8337 35.0795 55.2326 36.1109 56.2641C37.1424 57.2955 38.5413 57.875 40 57.875C41.4587 57.875 42.8576 57.2955 43.8891 56.2641C44.9205 55.2326 45.5 53.8337 45.5 52.375V51" stroke="#080829" stroke-width="2" stroke-linecap="round" stroke-linejoin="round"/>
<path d="M49.5273 22.123C52.3252 23.8893 54.5806 26.3944 56.0446 29.3617" stroke="#080829" stroke-width="2" stroke-linecap="round" stroke-linejoin="round"/>
<path d="M23.957 29.3617C25.421 26.3944 27.6764 23.8893 30.4743 22.123" stroke="#080829" stroke-width="2" stroke-linecap="round" stroke-linejoin="round"/>
</svg>
