<svg width="25" height="24" viewBox="0 0 25 24" fill="none" xmlns="http://www.w3.org/2000/svg">
<g clip-path="url(#clip0_616_5731)">
<path d="M24.6433 7.05607C24.5871 5.78085 24.3809 4.90416 24.0855 4.14449C23.7807 3.33812 23.3119 2.61617 22.6976 2.01602C22.0975 1.40652 21.3708 0.932922 20.5737 0.632936C19.8097 0.337529 18.9376 0.131312 17.6623 0.0750879C16.3776 0.0141019 15.9698 0 12.7113 0C9.45287 0 9.04501 0.0141019 7.76504 0.0703262C6.48983 0.126551 5.61313 0.332951 4.85365 0.628175C4.0471 0.932922 3.32515 1.40176 2.725 2.01602C2.11551 2.61617 1.64209 3.34288 1.34192 4.13991C1.04651 4.90416 0.840296 5.77609 0.784072 7.0513C0.723086 8.33604 0.708984 8.7439 0.708984 12.0023C0.708984 15.2608 0.723086 15.6686 0.779311 16.9486C0.835535 18.2238 1.04193 19.1005 1.33734 19.8602C1.64209 20.6666 2.11551 21.3885 2.725 21.9887C3.32515 22.5982 4.05186 23.0718 4.84889 23.3718C5.61313 23.6672 6.48507 23.8734 7.76046 23.9296C9.04025 23.986 9.44829 23.9999 12.7067 23.9999C15.9652 23.9999 16.373 23.986 17.653 23.9296C18.9282 23.8734 19.8049 23.6672 20.5644 23.3718C22.1773 22.7482 23.4525 21.4729 24.0761 19.8602C24.3713 19.096 24.5777 18.2238 24.634 16.9486C24.6902 15.6686 24.7043 15.2608 24.7043 12.0023C24.7043 8.7439 24.6995 8.33604 24.6433 7.05607ZM22.4821 16.8549C22.4304 18.027 22.2335 18.6599 22.0695 19.0819C21.6662 20.1274 20.8364 20.9572 19.7908 21.3605C19.3689 21.5246 18.7313 21.7215 17.5638 21.7729C16.2979 21.8293 15.9183 21.8433 12.7161 21.8433C9.51385 21.8433 9.12944 21.8293 7.86815 21.7729C6.69605 21.7215 6.06311 21.5246 5.64115 21.3605C5.12085 21.1682 4.64725 20.8635 4.26284 20.4649C3.86432 20.0758 3.55957 19.6069 3.36728 19.0866C3.20318 18.6647 3.0063 18.027 2.95484 16.8596C2.89843 15.5937 2.88452 15.2139 2.88452 12.0117C2.88452 8.80946 2.89843 8.42505 2.95484 7.16394C3.0063 5.99183 3.20318 5.3589 3.36728 4.93694C3.55957 4.41645 3.86432 3.94303 4.2676 3.55843C4.65659 3.15992 5.12543 2.85517 5.64592 2.66306C6.06787 2.49896 6.70557 2.30209 7.87291 2.25044C9.13878 2.19422 9.51862 2.18011 12.7207 2.18011C15.9276 2.18011 16.3073 2.19422 17.5686 2.25044C18.7407 2.30209 19.3736 2.49896 19.7956 2.66306C20.3159 2.85517 20.7895 3.15992 21.1739 3.55843C21.5724 3.94761 21.8772 4.41645 22.0695 4.93694C22.2335 5.3589 22.4304 5.99641 22.4821 7.16394C22.5383 8.42981 22.5524 8.80946 22.5524 12.0117C22.5524 15.2139 22.5383 15.589 22.4821 16.8549Z" fill="#080829"/>
<path d="M12.7114 5.83716C9.30773 5.83716 6.54614 8.59856 6.54614 12.0024C6.54614 15.4063 9.30773 18.1677 12.7114 18.1677C16.1153 18.1677 18.8767 15.4063 18.8767 12.0024C18.8767 8.59856 16.1153 5.83716 12.7114 5.83716ZM12.7114 16.0017C10.5033 16.0017 8.71215 14.2107 8.71215 12.0024C8.71215 9.79411 10.5033 8.00317 12.7114 8.00317C14.9197 8.00317 16.7107 9.79411 16.7107 12.0024C16.7107 14.2107 14.9197 16.0017 12.7114 16.0017Z" fill="#080829"/>
<path d="M20.5597 5.59385C20.5597 6.38869 19.9152 7.03316 19.1202 7.03316C18.3254 7.03316 17.6809 6.38869 17.6809 5.59385C17.6809 4.79883 18.3254 4.15454 19.1202 4.15454C19.9152 4.15454 20.5597 4.79883 20.5597 5.59385Z" fill="#080829"/>
</g>
<defs>
<clipPath id="clip0_616_5731">
<rect width="24" height="24" fill="white" transform="translate(0.666748)"/>
</clipPath>
</defs>
</svg>
