<svg width="236" height="342" viewBox="0 0 236 342" fill="none" xmlns="http://www.w3.org/2000/svg">
<rect width="236" height="342" rx="16" fill="white"/>
<rect x="20" y="20" width="90" height="90" rx="16" fill="#FE7F51"/>
<path d="M71.5386 60.5455V60.546C71.5386 61.0524 71.3318 61.538 70.9639 61.896C70.5959 62.254 70.0969 62.4552 69.5767 62.4551C69.0564 62.4551 68.5574 62.2539 68.1895 61.8958C67.8216 61.5378 67.615 61.0521 67.615 60.5458C67.615 60.0394 67.8216 59.5537 68.1895 59.1957C68.5574 58.8376 69.0564 58.6364 69.5767 58.6364C70.0969 58.6363 70.5959 58.8375 70.9639 59.1955C71.3318 59.5535 71.5386 60.0391 71.5386 60.5455ZM82 53.5455V76.4545C81.9992 77.1294 81.7234 77.7764 81.2331 78.2536C80.7428 78.7308 80.078 78.9992 79.3846 79H50.6154C49.922 78.9992 49.2572 78.7308 48.7669 78.2536C48.2766 77.7764 48.0008 77.1294 48 76.4545V53.5455C48.0008 52.8706 48.2766 52.2236 48.7669 51.7464C49.2572 51.2692 49.922 51.0008 50.6154 51H79.3846C80.078 51.0008 80.7428 51.2692 81.2331 51.7464C81.7234 52.2236 81.9992 52.8706 82 53.5455ZM79.386 70.8376L79.3846 53.5455H50.6154V68.2909L56.6122 62.4546C57.1031 61.9779 57.7682 61.7102 58.4616 61.7102C59.155 61.7102 59.8201 61.9779 60.311 62.4546L67.6156 69.5638L70.9968 66.2728C71.4877 65.7961 72.1528 65.5284 72.8462 65.5284C73.5396 65.5284 74.2048 65.7961 74.6956 66.2728L79.386 70.8376Z" fill="white"/>
<rect x="126" y="20" width="90" height="90" rx="16" fill="#4353FF"/>
<path d="M183.864 59.0618C183.864 59.0618 180.045 70.4518 179.763 71.4188C179.65 70.4697 176.865 50 176.865 50C170.355 50 166.893 54.4055 165.049 59.0618C165.049 59.0618 160.402 70.4876 160.026 71.4367C160.007 70.5413 159.311 59.1693 159.311 59.1693C158.916 53.4564 153.44 50 149 50L154.343 81C161.155 80.9821 164.823 76.5945 166.743 71.9203C166.743 71.9203 170.825 61.8377 170.995 61.3899C171.032 61.8198 173.93 81 173.93 81C180.76 81 184.448 76.8989 186.423 72.4038L196 50C189.245 50 185.689 54.3876 183.864 59.0618Z" fill="white"/>
<g filter="url(#filter0_d_616_3661)">
<rect x="20" y="126" width="90" height="90" rx="16" fill="url(#paint0_linear_616_3661)" shape-rendering="crispEdges"/>
</g>
<path d="M57.2525 194C61.2537 194 64.501 190.565 64.501 186.333V178.667H57.2525C53.2513 178.667 50.0039 182.101 50.0039 186.333C50.0039 190.565 53.2513 194 57.2525 194Z" fill="#0ACF83"/>
<path d="M50.0039 171C50.0039 166.768 53.2513 163.333 57.2525 163.333H64.501V178.667H57.2525C53.2513 178.667 50.0039 175.232 50.0039 171Z" fill="#A259FF"/>
<path d="M50.0078 155.667C50.0078 151.435 53.2552 148 57.2564 148H64.5049V163.333H57.2564C53.2552 163.333 50.0078 159.899 50.0078 155.667Z" fill="#F24E1E"/>
<path d="M64.5 148H71.7486C75.7498 148 78.9971 151.435 78.9971 155.667C78.9971 159.899 75.7498 163.333 71.7486 163.333H64.5V148Z" fill="#FF7262"/>
<path d="M78.9971 171C78.9971 175.232 75.7498 178.667 71.7486 178.667C67.7474 178.667 64.5 175.232 64.5 171C64.5 166.768 67.7474 163.333 71.7486 163.333C75.7498 163.333 78.9971 166.768 78.9971 171Z" fill="#1ABCFE"/>
<g filter="url(#filter1_d_616_3661)">
<rect x="126" y="126" width="90" height="90" rx="16" fill="#FF3366"/>
</g>
<path d="M198.017 138H143.983C140.679 138 138 140.679 138 143.983V198.017C138 201.321 140.679 204 143.983 204H198.017C201.321 204 204 201.321 204 198.017V143.983C204 140.679 201.321 138 198.017 138Z" fill="#FF3366"/>
<path d="M160.059 158.766C162.253 158.766 164.091 157.046 164.091 154.792C164.091 152.54 162.253 150.821 160.059 150.821C157.865 150.821 156.028 152.54 156.028 154.792C156.028 157.046 157.865 158.766 160.059 158.766ZM151.699 180.04C151.462 181.048 151.343 182.137 151.343 183.025C151.343 186.523 153.241 188.846 157.273 188.846C160.616 188.846 163.327 186.86 165.279 183.654L164.087 188.437H170.727L174.522 173.216C175.471 169.362 177.309 167.362 180.096 167.362C182.29 167.362 183.653 168.726 183.653 170.979C183.653 171.631 183.594 172.342 183.357 173.113L181.4 180.109C181.103 181.117 180.985 182.126 180.985 183.074C180.985 186.395 182.941 188.825 187.033 188.825C190.531 188.825 193.317 186.573 194.859 181.177L192.25 180.17C190.946 183.785 189.819 184.438 188.93 184.438C188.04 184.438 187.566 183.846 187.566 182.661C187.566 182.127 187.685 181.535 187.862 180.822L189.76 174.006C190.234 172.405 190.413 170.986 190.413 169.682C190.413 164.583 187.329 161.922 183.594 161.922C180.096 161.922 176.538 165.077 174.76 168.398L176.064 162.437H165.925L164.502 167.687H169.246L166.325 179.382C164.031 184.481 159.818 184.564 159.289 184.445C158.421 184.249 157.865 183.92 157.865 182.791C157.865 182.14 157.984 181.205 158.28 180.078L162.728 162.437H151.462L150.039 167.687H154.723L151.699 180.04" fill="white"/>
<g filter="url(#filter2_d_616_3661)">
<rect x="20" y="232" width="90" height="90" rx="16" fill="white"/>
</g>
<path d="M52.0161 257.382L64.9536 256L77.8911 257.382L87.9073 270.969L64.9536 297.979L42 270.969L52.0161 257.382Z" fill="#FDB300"/>
<path d="M51.2974 270.969L64.9536 297.979L42 270.969H51.2974Z" fill="#EA6C00"/>
<path d="M78.6089 270.969L64.9526 297.979L87.9062 270.969H78.6089Z" fill="#EA6C00"/>
<path d="M51.2969 270.969H78.6094L64.9532 297.979L51.2969 270.969Z" fill="#FDAD00"/>
<path d="M64.9532 256L52.0156 257.382L51.2969 270.969L64.9532 256Z" fill="#FDD231"/>
<path d="M64.9531 256L77.8907 257.382L78.6094 270.969L64.9531 256Z" fill="#FDD231"/>
<path d="M87.9062 270.969L77.89 257.382L78.6089 270.969H87.9062Z" fill="#FDAD00"/>
<path d="M42 270.969L52.0161 257.382L51.2974 270.969H42Z" fill="#FDAD00"/>
<path d="M64.9532 256L51.2969 270.969H78.6094L64.9532 256Z" fill="#FEEEB7"/>
<g filter="url(#filter3_d_616_3661)">
<rect x="126" y="232" width="90" height="90" rx="16" fill="#470137"/>
</g>
<path d="M151.625 248H190.375C196.25 248 201 252.709 201 258.534V295.466C201 301.291 196.25 306 190.375 306H151.625C145.75 306 141 301.291 141 295.466V258.534C141 252.709 145.75 248 151.625 248Z" fill="#470137"/>
<path d="M172.552 263.244L165.052 275.513L173.052 288.526C173.102 288.625 173.127 288.724 173.102 288.823C173.077 288.922 172.977 288.848 172.827 288.873H167.102C166.702 288.873 166.427 288.848 166.252 288.6C165.727 287.559 165.177 286.543 164.652 285.502C164.127 284.486 163.552 283.444 162.952 282.379C162.352 281.313 161.752 280.247 161.152 279.156H161.102C160.577 280.222 160.002 281.288 159.427 282.354C158.852 283.42 158.277 284.486 157.727 285.527C157.152 286.568 156.577 287.633 156.002 288.65C155.902 288.897 155.702 288.922 155.427 288.922H149.927C149.827 288.922 149.752 288.972 149.752 288.848C149.727 288.749 149.752 288.65 149.802 288.575L157.577 275.934L150.002 263.219C149.927 263.12 149.902 263.021 149.952 262.971C150.002 262.897 150.102 262.872 150.202 262.872H155.877C156.002 262.872 156.127 262.897 156.227 262.921C156.327 262.971 156.402 263.045 156.477 263.144C156.952 264.21 157.502 265.276 158.077 266.342C158.677 267.408 159.252 268.449 159.877 269.49C160.477 270.531 161.027 271.572 161.552 272.638H161.602C162.127 271.547 162.677 270.481 163.227 269.44C163.777 268.399 164.352 267.358 164.927 266.317C165.502 265.276 166.052 264.21 166.602 263.194C166.627 263.095 166.677 262.996 166.752 262.946C166.852 262.897 166.952 262.872 167.077 262.897H172.352C172.477 262.872 172.602 262.946 172.627 263.07C172.652 263.095 172.602 263.194 172.552 263.244Z" fill="#FF61F6"/>
<path d="M184.1 289.393C182.25 289.418 180.4 289.046 178.725 288.278C177.15 287.559 175.85 286.369 174.95 284.907C174.025 283.395 173.575 281.511 173.575 279.256C173.55 277.421 174.025 275.612 174.95 274.026C175.9 272.415 177.275 271.076 178.925 270.184C180.675 269.217 182.775 268.746 185.25 268.746C185.375 268.746 185.55 268.746 185.775 268.771C186 268.796 186.25 268.796 186.55 268.821V260.988C186.55 260.815 186.625 260.715 186.8 260.715H191.875C192 260.691 192.1 260.79 192.125 260.889C192.125 260.914 192.125 260.938 192.125 260.938V284.535C192.125 284.981 192.15 285.477 192.175 286.022C192.225 286.543 192.25 287.038 192.275 287.46C192.275 287.633 192.2 287.782 192.025 287.856C190.725 288.402 189.35 288.798 187.95 289.046C186.675 289.269 185.4 289.393 184.1 289.393ZM186.55 284.436V273.53C186.325 273.48 186.1 273.431 185.875 273.406C185.6 273.381 185.325 273.356 185.05 273.356C184.075 273.356 183.1 273.555 182.225 274.001C181.375 274.422 180.65 275.042 180.1 275.835C179.55 276.628 179.275 277.694 179.275 278.983C179.25 279.85 179.4 280.718 179.7 281.536C179.95 282.205 180.325 282.8 180.825 283.296C181.3 283.742 181.875 284.089 182.525 284.287C183.2 284.51 183.9 284.609 184.6 284.609C184.975 284.609 185.325 284.585 185.65 284.56C185.975 284.585 186.25 284.535 186.55 284.436Z" fill="#FF61F6"/>
<defs>
<filter id="filter0_d_616_3661" x="0" y="116" width="130" height="130" filterUnits="userSpaceOnUse" color-interpolation-filters="sRGB">
<feFlood flood-opacity="0" result="BackgroundImageFix"/>
<feColorMatrix in="SourceAlpha" type="matrix" values="0 0 0 0 0 0 0 0 0 0 0 0 0 0 0 0 0 0 127 0" result="hardAlpha"/>
<feOffset dy="10"/>
<feGaussianBlur stdDeviation="10"/>
<feComposite in2="hardAlpha" operator="out"/>
<feColorMatrix type="matrix" values="0 0 0 0 0 0 0 0 0 0 0 0 0 0 0 0 0 0 0.06 0"/>
<feBlend mode="normal" in2="BackgroundImageFix" result="effect1_dropShadow_616_3661"/>
<feBlend mode="normal" in="SourceGraphic" in2="effect1_dropShadow_616_3661" result="shape"/>
</filter>
<filter id="filter1_d_616_3661" x="106" y="116" width="130" height="130" filterUnits="userSpaceOnUse" color-interpolation-filters="sRGB">
<feFlood flood-opacity="0" result="BackgroundImageFix"/>
<feColorMatrix in="SourceAlpha" type="matrix" values="0 0 0 0 0 0 0 0 0 0 0 0 0 0 0 0 0 0 127 0" result="hardAlpha"/>
<feOffset dy="10"/>
<feGaussianBlur stdDeviation="10"/>
<feComposite in2="hardAlpha" operator="out"/>
<feColorMatrix type="matrix" values="0 0 0 0 0 0 0 0 0 0 0 0 0 0 0 0 0 0 0.06 0"/>
<feBlend mode="normal" in2="BackgroundImageFix" result="effect1_dropShadow_616_3661"/>
<feBlend mode="normal" in="SourceGraphic" in2="effect1_dropShadow_616_3661" result="shape"/>
</filter>
<filter id="filter2_d_616_3661" x="10" y="227" width="110" height="110" filterUnits="userSpaceOnUse" color-interpolation-filters="sRGB">
<feFlood flood-opacity="0" result="BackgroundImageFix"/>
<feColorMatrix in="SourceAlpha" type="matrix" values="0 0 0 0 0 0 0 0 0 0 0 0 0 0 0 0 0 0 127 0" result="hardAlpha"/>
<feOffset dy="5"/>
<feGaussianBlur stdDeviation="5"/>
<feComposite in2="hardAlpha" operator="out"/>
<feColorMatrix type="matrix" values="0 0 0 0 0 0 0 0 0 0 0 0 0 0 0 0 0 0 0.06 0"/>
<feBlend mode="normal" in2="BackgroundImageFix" result="effect1_dropShadow_616_3661"/>
<feBlend mode="normal" in="SourceGraphic" in2="effect1_dropShadow_616_3661" result="shape"/>
</filter>
<filter id="filter3_d_616_3661" x="116" y="232" width="110" height="110" filterUnits="userSpaceOnUse" color-interpolation-filters="sRGB">
<feFlood flood-opacity="0" result="BackgroundImageFix"/>
<feColorMatrix in="SourceAlpha" type="matrix" values="0 0 0 0 0 0 0 0 0 0 0 0 0 0 0 0 0 0 127 0" result="hardAlpha"/>
<feOffset dy="10"/>
<feGaussianBlur stdDeviation="5"/>
<feComposite in2="hardAlpha" operator="out"/>
<feColorMatrix type="matrix" values="0 0 0 0 0 0 0 0 0 0 0 0 0 0 0 0 0 0 0.06 0"/>
<feBlend mode="normal" in2="BackgroundImageFix" result="effect1_dropShadow_616_3661"/>
<feBlend mode="normal" in="SourceGraphic" in2="effect1_dropShadow_616_3661" result="shape"/>
</filter>
<linearGradient id="paint0_linear_616_3661" x1="49" y1="126" x2="85.5" y2="216" gradientUnits="userSpaceOnUse">
<stop stop-color="#080829" stop-opacity="0.74"/>
<stop offset="1" stop-color="#080829"/>
</linearGradient>
</defs>
</svg>
