<svg width="28" height="26" viewBox="0 0 28 26" fill="none" xmlns="http://www.w3.org/2000/svg">
<path opacity="0.2" d="M27.098 9.80055C26.9774 9.42306 26.7456 9.09058 26.4327 8.84648C26.1198 8.60238 25.7404 8.458 25.344 8.43218L18.1754 7.93185L15.5162 1.25364C15.3723 0.884432 15.1199 0.567196 14.7921 0.343496C14.4643 0.119796 14.0764 6.74844e-05 13.6792 0H13.6773C13.2808 0.000705435 12.8936 0.120739 12.5666 0.344405C12.2395 0.568071 11.9877 0.88496 11.8442 1.25364L9.14531 7.97041L2.0163 8.43218C1.6199 8.458 1.24051 8.60238 0.927628 8.84648C0.614745 9.09058 0.382897 9.42306 0.262335 9.80055C0.135149 10.1834 0.126497 10.5956 0.237505 10.9834C0.348513 11.3712 0.574037 11.7167 0.884709 11.9749L6.36915 16.5982L4.73777 22.998C4.62533 23.4291 4.646 23.884 4.7971 24.3032C4.94819 24.7224 5.22266 25.0863 5.58457 25.3473C5.934 25.6009 6.35185 25.7436 6.78375 25.757C7.21566 25.7705 7.64161 25.6539 8.00618 25.4226L13.6641 21.8479C13.6717 21.8422 13.6792 21.8385 13.6962 21.8479L19.7841 25.6943C20.1146 25.9049 20.5012 26.0112 20.8932 25.9991C21.2852 25.987 21.6645 25.8572 21.9813 25.6266C22.3092 25.3902 22.558 25.0606 22.6949 24.6808C22.8319 24.3011 22.8507 23.889 22.7489 23.4984L21.0157 16.507L26.4756 11.9749C26.7863 11.7167 27.0118 11.3712 27.1228 10.9834C27.2338 10.5956 27.2252 10.1834 27.098 9.80055Z" fill="#3F53D8"/>
</svg>
