<svg width="179" height="100" viewBox="0 0 179 100" fill="none" xmlns="http://www.w3.org/2000/svg">
<path d="M42.197 48.371C41.818 48.7523 41.5278 49.2124 41.347 49.7187C41.1662 50.225 41.0993 50.7649 41.151 51.3L41.133 51.282C41.1861 51.9118 41.1012 52.5457 40.8841 53.1393C40.667 53.733 40.323 54.2721 39.876 54.7191C39.4291 55.166 38.89 55.51 38.2963 55.7271C37.7027 55.9442 37.0688 56.0292 36.439 55.976L36.457 55.994C35.7036 55.9239 34.9468 56.0878 34.29 56.4635C33.6332 56.8392 33.1082 57.4083 32.7867 58.0933C32.4651 58.7783 32.3627 59.5457 32.4933 60.291C32.6239 61.0364 32.9813 61.7233 33.5165 62.2581C34.0518 62.7929 34.7391 63.1496 35.4845 63.2795C36.2299 63.4095 36.9973 63.3063 37.682 62.9842C38.3667 62.662 38.9353 62.1365 39.3104 61.4794C39.6855 60.8222 39.8488 60.0653 39.778 59.312L39.797 59.33C39.7438 58.7001 39.8287 58.0663 40.0458 57.4726C40.2629 56.879 40.607 56.3399 41.0539 55.8929C41.5009 55.446 42.04 55.1019 42.6336 54.8848C43.2273 54.6677 43.8611 54.5828 44.491 54.636L44.472 54.618C45.0874 54.6733 45.7069 54.5724 46.273 54.3246C46.839 54.0768 47.3334 53.6901 47.7102 53.2004C48.087 52.7107 48.3341 52.1337 48.4286 51.523C48.5231 50.9124 48.4619 50.2877 48.2507 49.707C48.0395 49.1263 47.6851 48.6083 47.2204 48.201C46.7557 47.7937 46.1957 47.5103 45.5923 47.3771C44.9889 47.2439 44.3616 47.2651 43.7686 47.4388C43.1756 47.6126 42.6361 47.9332 42.2 48.371H42.197Z" fill="#080829"/>
<path d="M34.82 53.636L34.801 53.618C35.3363 53.6719 35.8769 53.6062 36.3838 53.4256C36.8906 53.245 37.3509 52.9541 37.7315 52.5738C38.1121 52.1935 38.4034 51.7333 38.5844 51.2266C38.7654 50.7199 38.8315 50.1794 38.778 49.644L38.797 49.662C38.7438 49.0321 38.8287 48.3983 39.0458 47.8046C39.2629 47.211 39.607 46.6719 40.0539 46.2249C40.5009 45.778 41.04 45.4339 41.6336 45.2169C42.2273 44.9998 42.8611 44.9148 43.491 44.968L43.472 44.95C44.2255 45.0208 44.9824 44.8574 45.6396 44.4821C46.2968 44.1068 46.8223 43.538 47.1443 42.8531C47.4663 42.1682 47.5692 41.4007 47.439 40.6552C47.3088 39.9097 46.9517 39.2225 46.4166 38.6874C45.8815 38.1522 45.1943 37.7952 44.4488 37.665C43.7033 37.5347 42.9357 37.6377 42.2509 37.9597C41.566 38.2817 40.9971 38.8071 40.6219 39.4643C40.2466 40.1215 40.0832 40.8785 40.154 41.632L40.136 41.613C40.1893 42.2429 40.1045 42.8768 39.8875 43.4706C39.6705 44.0643 39.3264 44.6035 38.8794 45.0505C38.4324 45.4974 37.8933 45.8415 37.2995 46.0585C36.7058 46.2755 36.0719 46.3603 35.442 46.307L35.46 46.326C34.9246 46.2721 34.384 46.3378 33.8772 46.5184C33.3704 46.6989 32.91 46.9899 32.5294 47.3702C32.1488 47.7505 31.8575 48.2107 31.6765 48.7174C31.4956 49.2241 31.4294 49.7646 31.483 50.3L31.465 50.282C31.518 50.9118 31.4329 51.5456 31.2158 52.1392C30.9986 52.7327 30.6546 53.2718 30.2077 53.7187C29.7607 54.1656 29.2217 54.5096 28.6281 54.7268C28.0346 54.9439 27.4008 55.029 26.771 54.976L26.789 54.994C26.0355 54.9232 25.2785 55.0866 24.6213 55.4619C23.9641 55.8372 23.4387 56.406 23.1167 57.0909C22.7946 57.7758 22.6917 58.5433 22.822 59.2888C22.9522 60.0343 23.3092 60.7215 23.8444 61.2566C24.3795 61.7918 25.0667 62.1488 25.8122 62.279C26.5577 62.4092 27.3252 62.3063 28.0101 61.9843C28.695 61.6623 29.2638 61.1369 29.6391 60.4796C30.0143 59.8224 30.1777 59.0655 30.107 58.312L30.126 58.33C30.0728 57.7001 30.1577 57.0663 30.3748 56.4726C30.5919 55.879 30.936 55.3399 31.3829 54.8929C31.8299 54.446 32.369 54.1019 32.9626 53.8848C33.5563 53.6678 34.1901 53.5828 34.82 53.636Z" fill="#080829"/>
<path d="M28.118 51.629C28.4971 51.2478 28.7873 50.7876 28.9679 50.2813C29.1485 49.775 29.2152 49.235 29.163 48.7L29.182 48.718C29.1288 48.088 29.2138 47.4539 29.431 46.8601C29.6482 46.2663 29.9924 45.7271 30.4396 45.2801C30.8868 44.8331 31.4262 44.4891 32.0201 44.2722C32.6139 44.0552 33.248 43.9705 33.878 44.024L33.859 44.006C34.6123 44.0766 35.3689 43.9131 36.0258 43.5378C36.6827 43.1626 37.2079 42.5939 37.5297 41.9092C37.8515 41.2246 37.9544 40.4573 37.8241 39.7121C37.6939 38.9669 37.337 38.2799 36.802 37.745C36.2671 37.2101 35.5802 36.8531 34.835 36.7229C34.0897 36.5927 33.3225 36.6955 32.6378 37.0173C31.9532 37.3392 31.3844 37.8643 31.0092 38.5212C30.634 39.1781 30.4705 39.9348 30.541 40.688L30.523 40.67C30.5762 41.2999 30.4913 41.9337 30.2742 42.5274C30.0571 43.121 29.7131 43.6601 29.2661 44.1071C28.8192 44.554 28.28 44.8981 27.6864 45.1151C27.0928 45.3322 26.4589 45.4172 25.829 45.364L25.847 45.382C25.2316 45.3268 24.6122 45.4279 24.0462 45.6758C23.4802 45.9237 22.986 46.3105 22.6093 46.8003C22.2326 47.29 21.9856 47.867 21.8912 48.4776C21.7968 49.0883 21.8581 49.7129 22.0694 50.2935C22.2807 50.8742 22.6351 51.3921 23.0998 51.7993C23.5646 52.2066 24.1246 52.4899 24.7279 52.6231C25.3313 52.7562 25.9585 52.7349 26.5515 52.5612C27.1445 52.3874 27.684 52.0668 28.12 51.629H28.118Z" fill="#080829"/>
<path d="M59.095 41.655H62.065V56.108H59.095V41.655Z" fill="#080829"/>
<path d="M63.747 51.159C63.7428 50.1203 64.047 49.1038 64.621 48.2382C65.195 47.3726 66.013 46.6968 66.9714 46.2964C67.9298 45.8961 68.9855 45.7892 70.0047 45.9893C71.0239 46.1893 71.9608 46.6874 72.6967 47.4204C73.4326 48.1533 73.9344 49.0882 74.1386 50.1066C74.3427 51.125 74.2401 52.1811 73.8435 53.1411C73.447 54.101 72.7745 54.9218 71.9112 55.4992C71.0479 56.0767 70.0326 56.385 68.994 56.385C68.3045 56.3928 67.6204 56.2632 66.9816 56.0036C66.3429 55.744 65.7622 55.3597 65.2737 54.8731C64.7852 54.3866 64.3986 53.8075 64.1364 53.1698C63.8743 52.5321 63.7419 51.8485 63.747 51.159ZM71.271 51.159C71.2586 50.7113 71.1145 50.2772 70.8567 49.9109C70.599 49.5447 70.239 49.2625 69.8217 49.0998C69.4045 48.937 68.9485 48.9008 68.5108 48.9958C68.0731 49.0908 67.6732 49.3126 67.3609 49.6337C67.0486 49.9547 66.8379 50.3607 66.7551 50.8009C66.6723 51.241 66.7211 51.6958 66.8954 52.1084C67.0696 52.5209 67.3616 52.873 67.7349 53.1205C68.1082 53.368 68.5461 53.5 68.994 53.5C69.3007 53.5082 69.6058 53.4527 69.89 53.3371C70.1742 53.2215 70.4314 53.0483 70.6454 52.8284C70.8593 52.6084 71.0253 52.3465 71.133 52.0592C71.2407 51.7719 71.2877 51.4654 71.271 51.159Z" fill="#080829"/>
<path d="M86.078 46.209V55.609C86.078 58.935 83.484 60.341 80.851 60.341C79.9239 60.4104 78.9957 60.2231 78.168 59.7998C77.3404 59.3764 76.6453 58.7333 76.159 57.941L78.693 56.476C78.8974 56.889 79.2231 57.2297 79.6264 57.4526C80.0298 57.6754 80.4916 57.7698 80.95 57.723C81.243 57.7636 81.5414 57.7378 81.8231 57.6475C82.1047 57.5572 82.3625 57.4048 82.5773 57.2014C82.7921 56.998 82.9584 56.749 83.0639 56.4726C83.1695 56.1963 83.2115 55.8998 83.187 55.605V54.7C82.8392 55.1255 82.3965 55.4636 81.8945 55.6871C81.3924 55.9106 80.8449 56.0133 80.296 55.987C78.9898 55.9458 77.7509 55.398 76.8415 54.4594C75.9321 53.5209 75.4236 52.2653 75.4236 50.9585C75.4236 49.6517 75.9321 48.3961 76.8415 47.4576C77.7509 46.519 78.9898 45.9712 80.296 45.93C80.8449 45.9037 81.3924 46.0064 81.8945 46.2299C82.3965 46.4534 82.8392 46.7915 83.187 47.217V46.207L86.078 46.209ZM83.188 50.96C83.208 50.4814 83.0842 50.0077 82.8327 49.6C82.5812 49.1922 82.2134 48.8691 81.7767 48.6722C81.34 48.4752 80.8543 48.4135 80.3823 48.4949C79.9102 48.5763 79.4732 48.7971 79.1277 49.129C78.7822 49.4608 78.5439 49.8884 78.4434 50.3568C78.343 50.8253 78.385 51.313 78.5641 51.7573C78.7433 52.2016 79.0512 52.5822 79.4485 52.85C79.8457 53.1178 80.3139 53.2606 80.793 53.26C81.1051 53.2818 81.4182 53.238 81.7123 53.1314C82.0064 53.0248 82.2749 52.8577 82.5005 52.6411C82.7261 52.4244 82.9039 52.1629 83.0223 51.8733C83.1407 51.5838 83.1971 51.2727 83.188 50.96Z" fill="#080829"/>
<path d="M87.76 51.159C87.7559 50.1203 88.0601 49.1038 88.6341 48.2382C89.2081 47.3726 90.0261 46.6968 90.9845 46.2964C91.9429 45.8961 92.9985 45.7892 94.0177 45.9893C95.0369 46.1893 95.9738 46.6874 96.7097 47.4204C97.4456 48.1533 97.9474 49.0882 98.1516 50.1066C98.3558 51.125 98.2531 52.1811 97.8566 53.1411C97.4601 54.101 96.7876 54.9218 95.9243 55.4992C95.061 56.0767 94.0457 56.385 93.007 56.385C92.3176 56.3928 91.6335 56.2632 90.9947 56.0036C90.3559 55.744 89.7753 55.3597 89.2868 54.8731C88.7983 54.3866 88.4116 53.8075 88.1495 53.1698C87.8873 52.5321 87.7549 51.8485 87.76 51.159ZM95.284 51.159C95.2716 50.7113 95.1276 50.2772 94.8698 49.9109C94.612 49.5447 94.252 49.2625 93.8348 49.0998C93.4175 48.937 92.9616 48.9008 92.5239 48.9958C92.0862 49.0908 91.6862 49.3126 91.3739 49.6337C91.0617 49.9547 90.851 50.3607 90.7682 50.8009C90.6854 51.241 90.7341 51.6958 90.9084 52.1084C91.0827 52.5209 91.3747 52.873 91.748 53.1205C92.1212 53.368 92.5592 53.5 93.007 53.5C93.3137 53.5082 93.6188 53.4527 93.9031 53.3371C94.1873 53.2215 94.4445 53.0483 94.6584 52.8284C94.8723 52.6084 95.0384 52.3465 95.1461 52.0592C95.2537 51.7719 95.3007 51.4654 95.284 51.159Z" fill="#080829"/>
<path d="M99.6389 43.556C99.6389 43.2035 99.7434 42.859 99.9392 42.566C100.135 42.2729 100.413 42.0445 100.739 41.9096C101.065 41.7748 101.423 41.7395 101.769 41.8082C102.114 41.877 102.432 42.0467 102.681 42.2959C102.93 42.5451 103.1 42.8627 103.169 43.2083C103.237 43.554 103.202 43.9123 103.067 44.2379C102.932 44.5635 102.704 44.8419 102.411 45.0377C102.118 45.2335 101.773 45.338 101.421 45.338C100.95 45.3333 100.499 45.1441 100.166 44.8109C99.8329 44.4777 99.6436 44.0272 99.6389 43.556ZM99.9389 46.209H102.91V56.109H99.9349L99.9389 46.209Z" fill="#080829"/>
<path d="M115.734 51.159C115.768 51.8133 115.673 52.4679 115.453 53.0852C115.234 53.7025 114.894 54.2703 114.455 54.756C114.015 55.2416 113.484 55.6356 112.891 55.9152C112.298 56.1947 111.656 56.3544 111.002 56.385C110.452 56.415 109.901 56.3222 109.391 56.1133C108.881 55.9043 108.424 55.5845 108.053 55.177V60.068H105.083V46.209H108.053V47.139C108.424 46.7318 108.882 46.4122 109.392 46.2035C109.902 45.9947 110.452 45.902 111.002 45.932C111.657 45.9625 112.299 46.1221 112.891 46.4017C113.484 46.6813 114.016 47.0753 114.455 47.5611C114.895 48.0469 115.235 48.6149 115.454 49.2324C115.673 49.8498 115.769 50.5046 115.734 51.159ZM112.764 51.159C112.752 50.6957 112.604 50.2461 112.339 49.8664C112.073 49.4868 111.701 49.194 111.269 49.0248C110.838 48.8555 110.366 48.8172 109.913 48.9148C109.46 49.0123 109.046 49.2413 108.722 49.5731C108.398 49.905 108.18 50.3249 108.094 50.7803C108.008 51.2357 108.058 51.7063 108.238 52.1334C108.418 52.5605 108.72 52.9249 109.106 53.1812C109.492 53.4374 109.946 53.5741 110.409 53.574C110.727 53.5882 111.045 53.5349 111.341 53.4177C111.637 53.3006 111.905 53.1221 112.128 52.8941C112.35 52.666 112.522 52.3936 112.631 52.0946C112.741 51.7956 112.786 51.4767 112.764 51.159Z" fill="#080829"/>
<path d="M124.899 53.138C124.899 55.415 122.92 56.385 120.782 56.385C119.918 56.4633 119.051 56.2806 118.292 55.8606C117.533 55.4405 116.917 54.8025 116.525 54.029L119.098 52.564C119.202 52.9216 119.426 53.2326 119.731 53.4452C120.037 53.6577 120.407 53.759 120.778 53.732C121.49 53.732 121.847 53.514 121.847 53.119C121.847 52.029 116.976 52.604 116.976 49.179C116.976 47.02 118.798 45.932 120.857 45.932C121.631 45.9075 122.397 46.0911 123.076 46.4636C123.755 46.8362 124.322 47.384 124.717 48.05L122.183 49.416C122.072 49.1567 121.887 48.9358 121.651 48.7809C121.415 48.626 121.139 48.544 120.857 48.545C120.342 48.545 120.025 48.745 120.025 49.099C120.029 50.228 124.899 49.475 124.899 53.138Z" fill="#080829"/>
<path d="M135.748 46.209V56.109H132.778V55.178C132.435 55.5888 132 55.9125 131.508 56.1225C131.016 56.3325 130.482 56.4228 129.948 56.386C127.948 56.386 126.248 54.961 126.248 52.286V46.209H129.218V51.851C129.193 52.0868 129.22 52.3252 129.297 52.5495C129.373 52.7739 129.498 52.9789 129.662 53.1502C129.826 53.3215 130.025 53.4551 130.246 53.5415C130.466 53.628 130.703 53.6654 130.94 53.651C132.029 53.651 132.781 53.018 132.781 51.612V46.212L135.748 46.209Z" fill="#080829"/>
<path d="M152.778 50.03V56.108H149.808V50.287C149.808 49.297 149.333 48.664 148.383 48.664C147.393 48.664 146.838 49.357 146.838 50.525V56.108H143.869V50.287C143.869 49.297 143.394 48.664 142.443 48.664C141.453 48.664 140.899 49.357 140.899 50.525V56.108H137.929V46.208H140.899V47.118C141.207 46.7143 141.611 46.3941 142.074 46.1868C142.538 45.9794 143.046 45.8915 143.552 45.931C144.06 45.9061 144.566 46.0134 145.021 46.2422C145.475 46.4711 145.862 46.8138 146.145 47.237C146.474 46.7943 146.91 46.4423 147.412 46.2139C147.914 45.9855 148.466 45.8882 149.016 45.931C151.289 45.932 152.778 47.555 152.778 50.03Z" fill="#080829"/>
<path d="M155.29 46.148C156.507 46.148 157.494 45.1612 157.494 43.944C157.494 42.7268 156.507 41.74 155.29 41.74C154.073 41.74 153.086 42.7268 153.086 43.944C153.086 45.1612 154.073 46.148 155.29 46.148Z" fill="#080829"/>
</svg>
