<svg width="179" height="100" viewBox="0 0 179 100" fill="none" xmlns="http://www.w3.org/2000/svg">
<path d="M68.214 57.39C67.6192 57.4222 67.0309 57.2531 66.544 56.91C66.3405 56.7592 66.1768 56.5611 66.0671 56.3329C65.9573 56.1046 65.9047 55.8531 65.914 55.6V46.33C65.9091 46.2908 65.9133 46.2509 65.9261 46.2135C65.939 46.1761 65.9602 46.1421 65.9881 46.1142C66.0161 46.0862 66.0501 46.065 66.0875 46.0521C66.1249 46.0393 66.1647 46.0351 66.204 46.04H67.884C68.074 46.04 68.164 46.14 68.164 46.33V54.88C68.164 55.26 68.334 55.45 68.684 55.45C68.8323 55.4561 68.9807 55.4393 69.124 55.4C69.324 55.4 69.434 55.46 69.444 55.64L69.594 56.89C69.6012 56.9264 69.6005 56.964 69.5919 57.0002C69.5834 57.0363 69.5672 57.0702 69.5445 57.0996C69.5217 57.129 69.493 57.1531 69.4601 57.1705C69.4272 57.1878 69.391 57.1978 69.3539 57.2C68.986 57.3215 68.6015 57.3856 68.214 57.39Z" fill="#080829"/>
<path d="M77.6639 56.32C76.8198 57.0175 75.759 57.399 74.6639 57.399C73.5689 57.399 72.5081 57.0175 71.6639 56.32C70.922 55.571 70.5057 54.5593 70.5057 53.505C70.5057 52.4507 70.922 51.439 71.6639 50.69C72.5098 49.9961 73.5699 49.6169 74.6639 49.6169C75.758 49.6169 76.8181 49.9961 77.6639 50.69C78.3888 51.4459 78.7935 52.4527 78.7935 53.5C78.7935 54.5473 78.3888 55.5541 77.6639 56.31V56.32ZM73.2439 55C73.6357 55.3549 74.1454 55.5514 74.6739 55.5514C75.2025 55.5514 75.7122 55.3549 76.1039 55C76.4585 54.5924 76.6538 54.0703 76.6538 53.53C76.6538 52.9897 76.4585 52.4677 76.1039 52.06C75.7122 51.7052 75.2025 51.5086 74.6739 51.5086C74.1454 51.5086 73.6357 51.7052 73.2439 52.06C72.8894 52.4677 72.6941 52.9897 72.6941 53.53C72.6941 54.0703 72.8894 54.5924 73.2439 55Z" fill="#080829"/>
<path d="M88.044 49.87C88.234 49.87 88.324 49.97 88.324 50.16V57.33C88.3414 57.8139 88.2509 58.2957 88.0589 58.7402C87.8669 59.1848 87.5782 59.581 87.214 59.9C86.4054 60.5895 85.3655 60.9468 84.304 60.9C83.3451 60.9337 82.3991 60.6719 81.594 60.15C81.2502 59.9243 80.9565 59.6302 80.7311 59.2861C80.5058 58.9421 80.3536 58.5554 80.284 58.15C80.284 57.95 80.284 57.86 80.554 57.86H82.234C82.3053 57.8624 82.3744 57.8854 82.433 57.9262C82.4915 57.9671 82.537 58.0239 82.564 58.09C82.6729 58.3937 82.8901 58.6465 83.174 58.8C83.5199 58.9785 83.9048 59.0678 84.294 59.06C84.5288 59.0729 84.7638 59.0388 84.9853 58.9598C85.2067 58.8809 85.4103 58.7585 85.584 58.6C85.7426 58.4342 85.8661 58.2379 85.9469 58.0231C86.0276 57.8083 86.0641 57.5793 86.054 57.35V56.72C85.4525 57.1624 84.7204 57.3912 83.974 57.37C83.4516 57.389 82.9307 57.3022 82.4427 57.1149C81.9547 56.9276 81.5095 56.6436 81.134 56.28C80.413 55.5341 80.01 54.5374 80.01 53.5C80.01 52.4627 80.413 51.4659 81.134 50.72C81.5113 50.3596 81.957 50.0783 82.4448 49.8929C82.9325 49.7074 83.4525 49.6214 83.974 49.64C84.742 49.6197 85.4937 49.8632 86.104 50.33V50.17C86.0994 50.1317 86.1034 50.0928 86.1157 50.0562C86.128 50.0196 86.1483 49.9863 86.1751 49.9585C86.2019 49.9307 86.2345 49.9093 86.2707 49.8957C86.3068 49.8821 86.3455 49.8768 86.384 49.88L88.044 49.87ZM84.164 55.59C84.4216 55.598 84.6778 55.5493 84.9146 55.4473C85.1513 55.3454 85.3627 55.1927 85.534 55C85.8664 54.5707 86.0468 54.043 86.0468 53.5C86.0468 52.957 85.8664 52.4294 85.534 52C85.3633 51.8099 85.1532 51.6595 84.9182 51.5593C84.6833 51.4591 84.4292 51.4116 84.174 51.42C83.9134 51.4118 83.6541 51.4603 83.4141 51.5622C83.1741 51.6641 82.9591 51.8169 82.784 52.01C82.4157 52.4207 82.222 52.9588 82.244 53.51C82.2259 54.0558 82.4153 54.5882 82.774 55C82.9495 55.1926 83.1646 55.3451 83.4045 55.4469C83.6444 55.5487 83.9035 55.5975 84.164 55.59Z" fill="#080829"/>
<path d="M96.954 56.32C96.1082 57.0139 95.048 57.3931 93.954 57.3931C92.86 57.3931 91.7998 57.0139 90.954 56.32C90.2285 55.5624 89.8235 54.5539 89.8235 53.505C89.8235 52.456 90.2285 51.4476 90.954 50.69C91.8006 49.9979 92.8605 49.6198 93.954 49.6198C95.0475 49.6198 96.1074 49.9979 96.954 50.69C97.6788 51.4459 98.0835 52.4527 98.0835 53.5C98.0835 54.5473 97.6788 55.5541 96.954 56.31V56.32ZM92.524 55C92.7157 55.1824 92.9417 55.3249 93.1889 55.4193C93.436 55.5137 93.6995 55.5581 93.964 55.55C94.2268 55.5568 94.4884 55.5117 94.7337 55.4174C94.9791 55.323 95.2035 55.1812 95.394 55C95.7427 54.5896 95.9342 54.0686 95.9342 53.53C95.9342 52.9914 95.7427 52.4704 95.394 52.06C95.2035 51.8788 94.9791 51.737 94.7337 51.6426C94.4884 51.5483 94.2268 51.5032 93.964 51.51C93.6995 51.5018 93.436 51.5463 93.1889 51.6407C92.9417 51.7351 92.7157 51.8776 92.524 52.06C92.1752 52.4704 91.9837 52.9914 91.9837 53.53C91.9837 54.0686 92.1752 54.5896 92.524 55Z" fill="#080829"/>
<path d="M101.694 48.17C101.43 48.4014 101.09 48.5289 100.739 48.5289C100.388 48.5289 100.048 48.4014 99.7839 48.17C99.6641 48.0569 99.5686 47.9205 99.5033 47.7692C99.4381 47.6179 99.4044 47.4548 99.4044 47.29C99.4044 47.1252 99.4381 46.9622 99.5033 46.8108C99.5686 46.6595 99.6641 46.5231 99.7839 46.41C100.051 46.1844 100.389 46.0607 100.739 46.0607C101.089 46.0607 101.427 46.1844 101.694 46.41C101.814 46.5231 101.909 46.6595 101.975 46.8108C102.04 46.9622 102.073 47.1252 102.073 47.29C102.073 47.4548 102.04 47.6179 101.975 47.7692C101.909 47.9205 101.814 48.0569 101.694 48.17ZM101.904 57.39C101.31 57.4192 100.722 57.2503 100.234 56.91C100.034 56.757 99.8727 56.5582 99.7649 56.3303C99.657 56.1024 99.6053 55.852 99.6139 55.6V50.16C99.6091 50.1208 99.6132 50.0809 99.6261 50.0435C99.6389 50.0061 99.6602 49.9722 99.6881 49.9442C99.7161 49.9162 99.7501 49.895 99.7875 49.8822C99.8249 49.8693 99.8647 49.8652 99.9039 49.87H101.584C101.774 49.87 101.864 49.97 101.864 50.16V54.88C101.864 55.26 102.034 55.45 102.374 55.45C102.526 55.4555 102.677 55.4386 102.824 55.4C103.024 55.4 103.134 55.46 103.144 55.64L103.294 56.89C103.301 56.9265 103.3 56.964 103.292 57.0002C103.283 57.0363 103.267 57.0702 103.244 57.0996C103.222 57.129 103.193 57.1532 103.16 57.1705C103.127 57.1878 103.091 57.1979 103.054 57.2C102.683 57.3223 102.295 57.3864 101.904 57.39Z" fill="#080829"/>
<path d="M109.474 49.63C109.999 49.6093 110.522 49.6942 111.014 49.8797C111.505 50.0652 111.954 50.3476 112.334 50.71C113.041 51.4689 113.434 52.4677 113.434 53.505C113.434 54.5423 113.041 55.5411 112.334 56.3C111.956 56.6656 111.507 56.9508 111.016 57.1381C110.524 57.3255 110 57.4112 109.474 57.39C108.725 57.4067 107.991 57.1784 107.384 56.74V60.35C107.384 60.54 107.284 60.63 107.094 60.63H105.414C105.376 60.6372 105.336 60.6349 105.299 60.6234C105.262 60.6118 105.228 60.5914 105.2 60.5638C105.173 60.5362 105.152 60.5023 105.141 60.4651C105.129 60.4278 105.127 60.3883 105.134 60.35V52.15C105.146 52.0698 105.139 51.988 105.113 51.911C105.088 51.8341 105.045 51.7641 104.987 51.7068C104.93 51.6495 104.86 51.6064 104.783 51.5809C104.706 51.5554 104.624 51.5482 104.544 51.56H104.214C103.994 51.56 103.884 51.48 103.884 51.32V50.14C103.879 50.067 103.899 49.9944 103.941 49.9344C103.983 49.8743 104.044 49.8304 104.114 49.81C104.46 49.6843 104.826 49.6233 105.194 49.63C105.561 49.5975 105.929 49.6753 106.252 49.8535C106.574 50.0317 106.836 50.302 107.004 50.63C107.326 50.3042 107.711 50.0474 108.136 49.8755C108.561 49.7036 109.016 49.62 109.474 49.63ZM107.914 55C108.092 55.1864 108.306 55.3347 108.544 55.436C108.781 55.5373 109.036 55.5895 109.294 55.5895C109.552 55.5895 109.807 55.5373 110.044 55.436C110.281 55.3347 110.496 55.1864 110.674 55C111.05 54.5811 111.247 54.0322 111.224 53.47C111.25 52.9073 111.052 52.3572 110.674 51.94C110.496 51.7537 110.281 51.6054 110.044 51.504C109.807 51.4027 109.552 51.3505 109.294 51.3505C109.036 51.3505 108.781 51.4027 108.544 51.504C108.306 51.6054 108.092 51.7537 107.914 51.94C107.55 52.3646 107.361 52.9113 107.384 53.47C107.364 54.0283 107.553 54.5739 107.914 55Z" fill="#080829"/>
<path d="M118.154 57.39C117.256 57.4269 116.366 57.2122 115.584 56.77C115.27 56.581 115.003 56.3237 114.802 56.0173C114.601 55.7109 114.472 55.3632 114.424 55C114.424 54.8 114.494 54.7 114.714 54.7H116.184C116.254 54.7027 116.322 54.7247 116.38 54.7635C116.438 54.8024 116.485 54.8565 116.514 54.92C116.724 55.46 117.274 55.73 118.154 55.73C118.461 55.744 118.767 55.6822 119.044 55.55C119.14 55.5068 119.222 55.4384 119.282 55.3521C119.342 55.2658 119.377 55.1648 119.384 55.06C119.384 54.8 119.224 54.62 118.904 54.5C118.524 54.3737 118.132 54.2898 117.734 54.25C117.262 54.1966 116.795 54.1131 116.334 54C115.886 53.8986 115.478 53.6652 115.164 53.33C114.979 53.1022 114.843 52.8387 114.764 52.556C114.685 52.2733 114.665 51.9773 114.705 51.6866C114.745 51.3958 114.845 51.1164 114.998 50.8659C115.151 50.6153 115.354 50.3989 115.594 50.23C116.315 49.7709 117.16 49.5472 118.014 49.59C118.84 49.5621 119.658 49.7665 120.374 50.18C120.662 50.3435 120.911 50.5692 121.101 50.8408C121.292 51.1124 121.419 51.423 121.474 51.75C121.474 51.95 121.384 52.05 121.204 52.05H119.724C119.662 52.0537 119.6 52.0385 119.546 52.0064C119.493 51.9743 119.45 51.9267 119.424 51.87C119.325 51.6332 119.139 51.4434 118.904 51.34C118.639 51.2014 118.343 51.1325 118.044 51.14C117.751 51.1241 117.458 51.1825 117.194 51.31C117.101 51.346 117.02 51.409 116.963 51.491C116.906 51.573 116.875 51.6701 116.874 51.77C116.88 51.9068 116.93 52.0379 117.017 52.1441C117.103 52.2502 117.221 52.3259 117.354 52.36C117.738 52.5047 118.137 52.6054 118.544 52.66C119.012 52.7216 119.476 52.8083 119.934 52.92C120.382 53.0215 120.79 53.2548 121.104 53.59C121.272 53.7747 121.402 53.9908 121.486 54.226C121.57 54.4611 121.607 54.7106 121.594 54.96C121.603 55.3057 121.521 55.6477 121.358 55.9527C121.195 56.2576 120.956 56.5151 120.664 56.7C119.917 57.1796 119.041 57.4203 118.154 57.39Z" fill="#080829"/>
<path d="M132.164 56.89C132.17 56.9255 132.168 56.9618 132.16 56.9967C132.151 57.0316 132.136 57.0645 132.114 57.0934C132.093 57.1223 132.066 57.1466 132.035 57.1649C132.004 57.1832 131.97 57.1951 131.934 57.2C131.569 57.3192 131.188 57.3832 130.804 57.39C130.424 57.4294 130.04 57.37 129.69 57.2175C129.339 57.0651 129.034 56.8249 128.804 56.52C128.098 57.1273 127.184 57.4389 126.254 57.39C125.822 57.4099 125.391 57.3392 124.988 57.1825C124.585 57.0258 124.219 56.7865 123.914 56.48C123.611 56.1589 123.376 55.7799 123.223 55.3658C123.07 54.9517 123.002 54.5109 123.024 54.07V50.16C123.024 49.97 123.114 49.87 123.304 49.87H124.984C125.174 49.87 125.264 49.97 125.264 50.16V53.77C125.246 54.2198 125.399 54.6596 125.694 55C125.841 55.1559 126.02 55.2786 126.218 55.3597C126.416 55.4407 126.63 55.4784 126.844 55.47C127.063 55.4796 127.282 55.4456 127.488 55.3701C127.694 55.2946 127.883 55.179 128.044 55.03C128.196 54.873 128.315 54.6863 128.392 54.4817C128.47 54.277 128.504 54.0586 128.494 53.84V50.16C128.494 49.97 128.584 49.87 128.774 49.87H130.474C130.664 49.87 130.754 49.97 130.754 50.16V54.87C130.754 55.26 130.924 55.45 131.254 55.45C131.409 55.456 131.564 55.4392 131.714 55.4C131.752 55.3894 131.791 55.3875 131.83 55.3944C131.869 55.4014 131.905 55.417 131.937 55.4401C131.969 55.4632 131.995 55.4932 132.013 55.5278C132.032 55.5624 132.042 55.6008 132.044 55.64L132.164 56.89Z" fill="#080829"/>
<path d="M148.054 56.89C148.063 56.9258 148.064 56.9632 148.057 56.9993C148.049 57.0355 148.034 57.0697 148.012 57.0993C147.99 57.1289 147.962 57.1533 147.929 57.1707C147.897 57.1881 147.861 57.1981 147.824 57.2C147.452 57.3209 147.065 57.3849 146.674 57.39C146.079 57.4207 145.492 57.2517 145.004 56.91C144.793 56.7636 144.622 56.5675 144.505 56.339C144.388 56.1104 144.329 55.8566 144.334 55.6V53.25C144.355 52.8016 144.205 52.3619 143.914 52.02C143.774 51.8637 143.6 51.7405 143.407 51.6592C143.213 51.5779 143.004 51.5406 142.794 51.55C142.605 51.5429 142.417 51.5787 142.243 51.655C142.07 51.7312 141.917 51.8457 141.794 51.99C141.53 52.3251 141.395 52.7438 141.414 53.17V56.86C141.414 57.05 141.324 57.15 141.134 57.15H139.444C139.405 57.1549 139.365 57.1507 139.328 57.1379C139.29 57.125 139.256 57.1038 139.228 57.0758C139.2 57.0479 139.179 57.0139 139.166 56.9765C139.153 56.9391 139.149 56.8993 139.154 56.86V53.25C139.176 52.8065 139.037 52.3699 138.764 52.02C138.642 51.873 138.489 51.7547 138.316 51.6735C138.144 51.5922 137.955 51.5501 137.764 51.55C137.56 51.5418 137.357 51.5767 137.167 51.6525C136.977 51.7284 136.806 51.8434 136.664 51.99C136.378 52.3144 136.231 52.7381 136.254 53.17V56.86C136.259 56.8993 136.255 56.9391 136.242 56.9765C136.229 57.0139 136.208 57.0479 136.18 57.0758C136.152 57.1038 136.118 57.125 136.081 57.1379C136.043 57.1507 136.003 57.1549 135.964 57.15H134.334C134.144 57.15 134.054 57.05 134.054 56.86V52.15C134.066 52.0698 134.059 51.988 134.033 51.911C134.008 51.834 133.965 51.7641 133.907 51.7068C133.85 51.6495 133.78 51.6064 133.703 51.5809C133.626 51.5554 133.544 51.5482 133.464 51.56H133.134C132.914 51.56 132.804 51.48 132.804 51.32V50.14C132.799 50.067 132.819 49.9944 132.861 49.9343C132.903 49.8743 132.964 49.8304 133.034 49.81C133.38 49.6843 133.746 49.6232 134.114 49.63C134.467 49.5999 134.822 49.6703 135.137 49.8331C135.452 49.9959 135.714 50.2444 135.894 50.55C136.231 50.2302 136.631 49.9835 137.068 49.8252C137.505 49.6669 137.97 49.6005 138.434 49.63C138.885 49.608 139.334 49.6925 139.746 49.8767C140.158 50.0609 140.52 50.3395 140.804 50.69C141.135 50.3303 141.542 50.0486 141.995 49.8653C142.448 49.682 142.936 49.6016 143.424 49.63C143.861 49.6096 144.297 49.6799 144.704 49.8365C145.112 49.9932 145.483 50.2327 145.794 50.54C146.098 50.8605 146.333 51.2394 146.486 51.6536C146.639 52.0679 146.707 52.509 146.684 52.95V54.88C146.684 55.26 146.854 55.45 147.174 55.45C147.329 55.4572 147.484 55.4404 147.634 55.4C147.841 55.4 147.951 55.48 147.964 55.64L148.054 56.89Z" fill="#080829"/>
<path d="M30.794 48.57C31.5318 45.6047 33.2405 42.9714 35.6479 41.0895C38.0554 39.2076 41.0233 38.1853 44.079 38.1853C47.1348 38.1853 50.1026 39.2076 52.5101 41.0895C54.9176 42.9714 56.6263 45.6047 57.364 48.57H56.164C54.1397 48.5402 52.1569 49.1452 50.494 50.3C50.3981 50.3695 50.2979 50.4329 50.194 50.49H50.054C49.9502 50.4329 49.85 50.3695 49.754 50.3C48.0764 49.1719 46.1007 48.5694 44.079 48.5694C42.0574 48.5694 40.0816 49.1719 38.404 50.3C38.3081 50.3695 38.2079 50.4329 38.104 50.49H37.964C37.8602 50.4329 37.76 50.3695 37.664 50.3C36.0012 49.1452 34.0183 48.5402 31.994 48.57H30.794ZM54.004 54.84C54.62 54.3603 55.3835 54.1093 56.164 54.13H57.774V50.92H56.164C54.7893 50.9034 53.4459 51.3313 52.334 52.14C51.7083 52.6013 50.9514 52.8501 50.174 52.8501C49.3967 52.8501 48.6397 52.6013 48.014 52.14C46.8739 51.3464 45.5181 50.9209 44.129 50.9209C42.7399 50.9209 41.3841 51.3464 40.244 52.14C39.6183 52.6013 38.8614 52.8501 38.084 52.8501C37.3067 52.8501 36.5497 52.6013 35.924 52.14C34.7984 51.3209 33.4358 50.8925 32.044 50.92H30.384V54.13H31.994C32.7745 54.1093 33.538 54.3603 34.154 54.84C35.292 55.6341 36.6463 56.06 38.034 56.06C39.4217 56.06 40.776 55.6341 41.914 54.84C42.5308 54.3617 43.2938 54.111 44.074 54.13C44.8548 54.1076 45.6188 54.3588 46.234 54.84C47.3741 55.6336 48.7299 56.0591 50.119 56.0591C51.5081 56.0591 52.8639 55.6336 54.004 54.84ZM54.004 60.58C54.62 60.1003 55.3835 59.8493 56.164 59.87H57.774V56.66H56.164C54.7893 56.6434 53.4459 57.0713 52.334 57.88C51.7083 58.3413 50.9514 58.5901 50.174 58.5901C49.3967 58.5901 48.6397 58.3413 48.014 57.88C46.8739 57.0864 45.5181 56.6609 44.129 56.6609C42.7399 56.6609 41.3841 57.0864 40.244 57.88C39.6183 58.3413 38.8614 58.5901 38.084 58.5901C37.3067 58.5901 36.5497 58.3413 35.924 57.88C34.7984 57.0609 33.4358 56.6325 32.044 56.66H30.384V59.87H31.994C32.7745 59.8493 33.538 60.1003 34.154 60.58C35.292 61.3741 36.6463 61.8 38.034 61.8C39.4217 61.8 40.776 61.3741 41.914 60.58C42.5308 60.1017 43.2938 59.851 44.074 59.87C44.8548 59.8476 45.6188 60.0988 46.234 60.58C47.3741 61.3736 48.7299 61.7991 50.119 61.7991C51.5081 61.7991 52.8639 61.3736 54.004 60.58Z" fill="#080829"/>
</svg>
