<svg width="179" height="100" viewBox="0 0 179 100" fill="none" xmlns="http://www.w3.org/2000/svg">
<path d="M43.4921 40.7297V36.9231H31.49V63.0769H43.4921V59.2703C41.0335 59.2703 38.6755 58.2935 36.937 56.555C35.1985 54.8165 34.2218 52.4586 34.2218 50C34.2218 47.5414 35.1985 45.1834 36.937 43.4449C38.6755 41.7064 41.0335 40.7297 43.4921 40.7297Z" fill="#080829"/>
<path d="M43.4924 40.7297V59.2703C45.9511 59.2703 48.309 58.2935 50.0475 56.555C51.7861 54.8165 52.7627 52.4586 52.7627 50C52.7627 47.5414 51.7861 45.1834 50.0475 43.4449C48.309 41.7064 45.9511 40.7297 43.4924 40.7297Z" fill="#080829"/>
<path d="M59.4978 43.0586H62.1848V56.0011H59.4978V43.0586Z" fill="#080829"/>
<path d="M63.6899 51.5674C63.6899 50.6363 63.9664 49.7261 64.4843 48.9522C65.0021 48.1783 65.7381 47.5756 66.5989 47.2205C67.4598 46.8655 68.4066 46.7739 69.3195 46.9575C70.2324 47.1412 71.0702 47.5917 71.7267 48.252C72.3832 48.9124 72.829 49.7527 73.0074 50.6666C73.1858 51.5806 73.0889 52.5269 72.7288 53.3857C72.3687 54.2443 71.7619 54.9769 70.9851 55.4903C70.2083 56.0038 69.2965 56.275 68.3653 56.2697C67.7477 56.2746 67.1354 56.1561 66.5642 55.9211C65.993 55.6861 65.4744 55.3395 65.0389 54.9016C64.6035 54.4636 64.2599 53.943 64.0282 53.3705C63.7966 52.798 63.6815 52.185 63.6899 51.5674ZM70.4254 51.5674C70.4148 51.166 70.2861 50.7765 70.0554 50.4479C69.8246 50.1192 69.5022 49.8658 69.1282 49.7195C68.7542 49.5731 68.3454 49.5402 67.9529 49.6251C67.5604 49.7098 67.2016 49.9084 66.9213 50.196C66.641 50.4837 66.4518 50.8475 66.3773 51.2421C66.3027 51.6367 66.3462 52.0446 66.5022 52.4146C66.6582 52.7846 66.9199 53.1005 67.2545 53.3225C67.589 53.5446 67.9816 53.6631 68.3832 53.6633C68.6567 53.6687 68.9283 53.6175 69.181 53.5131C69.4338 53.4088 69.6623 53.2534 69.8522 53.0567C70.0422 52.86 70.1895 52.6261 70.2851 52.37C70.3807 52.1137 70.4223 51.8405 70.4075 51.5674H70.4254Z" fill="#080829"/>
<path d="M83.6723 47.134V55.5623C83.6723 58.536 81.3435 59.7989 78.9879 59.7989C78.1569 59.867 77.3235 59.702 76.5814 59.3222C75.8393 58.9424 75.2179 58.363 74.7871 57.6493L77.0532 56.3416C77.2368 56.7118 77.5289 57.0173 77.8906 57.2173C78.2522 57.4173 78.6662 57.5024 79.0774 57.4612C79.3394 57.4934 79.6053 57.4674 79.856 57.385C80.1067 57.3025 80.3361 57.1658 80.5278 56.9843C80.7196 56.8028 80.8688 56.5813 80.9649 56.3355C81.061 56.0897 81.1016 55.8257 81.0838 55.5623V54.7473C80.7711 55.1264 80.3743 55.4273 79.925 55.6264C79.4757 55.8254 78.9862 55.9169 78.4952 55.8937C77.3075 55.8937 76.1684 55.4219 75.3286 54.582C74.4887 53.7422 74.0168 52.6031 74.0168 51.4153C74.0168 50.2276 74.4887 49.0885 75.3286 48.2487C76.1684 47.4088 77.3075 46.9369 78.4952 46.9369C78.9862 46.9137 79.4757 47.0053 79.925 47.2043C80.3743 47.4033 80.7711 47.7043 81.0838 48.0834V47.1877L83.6723 47.134ZM81.0838 51.3885C81.1016 50.96 80.9909 50.5359 80.7658 50.1708C80.5407 49.8057 80.2116 49.5163 79.8207 49.3398C79.4298 49.1632 78.9951 49.1077 78.5724 49.1803C78.1497 49.2528 77.7583 49.4501 77.4486 49.7469C77.139 50.0436 76.9252 50.4262 76.8347 50.8455C76.7443 51.2648 76.7813 51.7014 76.941 52.0995C77.1008 52.4975 77.3759 52.8387 77.731 53.0791C78.0863 53.3195 78.5053 53.4482 78.9341 53.4485C79.214 53.4687 79.495 53.4299 79.7589 53.3348C80.0228 53.2396 80.2639 53.0901 80.4665 52.8959C80.6691 52.7018 80.8287 52.4673 80.935 52.2076C81.0413 51.948 81.092 51.6689 81.0838 51.3885Z" fill="#080829"/>
<path d="M85.1861 51.5675C85.1861 50.6371 85.4622 49.7276 85.9792 48.9541C86.4963 48.1806 87.2312 47.5779 88.091 47.2223C88.9507 46.8667 89.8967 46.774 90.8091 46.9562C91.7215 47.1384 92.5593 47.5871 93.2167 48.2456C93.8739 48.9042 94.321 49.7429 94.5014 50.6556C94.6819 51.5684 94.5875 52.5142 94.2302 53.3732C93.8729 54.2324 93.2688 54.9661 92.4944 55.4817C91.7199 55.9974 90.8099 56.2716 89.8795 56.2699C89.2607 56.2759 88.6469 56.1583 88.0742 55.9239C87.5015 55.6896 86.9813 55.3434 86.5442 54.9054C86.107 54.4674 85.7618 53.9466 85.5285 53.3734C85.2954 52.8003 85.1789 52.1863 85.1861 51.5675ZM91.9216 51.5675C91.911 51.1657 91.7821 50.7759 91.551 50.447C91.3199 50.1182 90.9968 49.8649 90.6223 49.7188C90.2479 49.5727 89.8386 49.5403 89.4459 49.6259C89.0531 49.7113 88.6943 49.9109 88.4144 50.1994C88.1345 50.4879 87.946 50.8526 87.8725 51.2478C87.799 51.643 87.8437 52.051 88.001 52.4209C88.1584 52.7908 88.4215 53.106 88.7573 53.327C89.093 53.548 89.4864 53.665 89.8884 53.6634C90.1619 53.6688 90.4334 53.6177 90.6862 53.5132C90.939 53.4089 91.1674 53.2535 91.3574 53.0568C91.5474 52.8601 91.6947 52.6262 91.7903 52.3701C91.8859 52.1138 91.9275 51.8406 91.9127 51.5675H91.9216Z" fill="#080829"/>
<path d="M95.8179 44.7604C95.8179 44.4452 95.9114 44.1369 96.0866 43.8747C96.2618 43.6125 96.5108 43.4082 96.802 43.2875C97.0934 43.1668 97.414 43.1353 97.7232 43.1968C98.0324 43.2583 98.3165 43.4101 98.5396 43.6331C98.7625 43.8561 98.9143 44.1402 98.9759 44.4494C99.0374 44.7587 99.0058 45.0792 98.8851 45.3706C98.7645 45.6619 98.5601 45.9109 98.2979 46.0861C98.0358 46.2612 97.7275 46.3548 97.4122 46.3548C96.9908 46.3501 96.588 46.1806 96.29 45.8826C95.992 45.5847 95.8225 45.1819 95.8179 44.7604ZM96.0776 47.134H98.7647V56.0012H96.0776V47.134Z" fill="#080829"/>
<path d="M110.265 51.5676C110.295 52.1573 110.208 52.7472 110.01 53.3033C109.811 53.8593 109.504 54.3706 109.107 54.8076C108.71 55.2446 108.23 55.5988 107.696 55.8498C107.161 56.1007 106.583 56.2435 105.993 56.2699C105.492 56.3032 104.99 56.2231 104.525 56.0354C104.06 55.8477 103.643 55.5574 103.306 55.1862V59.566H100.619V47.134H103.306V47.967C103.644 47.5968 104.061 47.3078 104.526 47.1217C104.991 46.9355 105.493 46.8571 105.993 46.8922C106.58 46.9186 107.157 47.0606 107.69 47.3098C108.222 47.5591 108.701 47.9109 109.097 48.345C109.494 48.7792 109.801 49.2872 110.002 49.8402C110.202 50.3931 110.292 50.98 110.265 51.5676ZM107.578 51.5676C107.568 51.1516 107.434 50.748 107.195 50.4073C106.956 50.0667 106.622 49.8041 106.235 49.6526C105.847 49.5011 105.423 49.4674 105.017 49.5556C104.61 49.6439 104.238 49.8502 103.949 50.1488C103.659 50.4473 103.463 50.8247 103.387 51.2339C103.311 51.6429 103.357 52.0654 103.52 52.4484C103.683 52.8313 103.955 53.1577 104.302 53.3866C104.65 53.6156 105.057 53.7368 105.473 53.7352C105.758 53.7472 106.043 53.699 106.308 53.5935C106.573 53.4879 106.813 53.3276 107.011 53.123C107.21 52.9183 107.363 52.6739 107.461 52.4059C107.559 52.1378 107.599 51.8522 107.578 51.5676Z" fill="#080829"/>
<path d="M118.443 53.3409C118.443 55.3831 116.651 56.2519 114.753 56.2519C113.978 56.3216 113.201 56.1574 112.52 55.7806C111.84 55.4038 111.289 54.8316 110.937 54.1381L113.248 52.8304C113.339 53.15 113.538 53.4285 113.81 53.6192C114.082 53.81 114.412 53.9015 114.744 53.8784C115.38 53.8784 115.702 53.6813 115.702 53.323C115.702 52.3467 111.34 52.8662 111.34 49.7941C111.34 47.8594 112.97 46.8921 114.815 46.8921C115.517 46.8606 116.213 47.0198 116.832 47.3525C117.45 47.6853 117.966 48.1792 118.326 48.7819L116.016 50.0001C115.913 49.769 115.747 49.5725 115.535 49.4342C115.324 49.2959 115.077 49.2218 114.824 49.2208C114.359 49.2208 114.081 49.4 114.081 49.7134C114.081 50.7345 118.443 50.0628 118.443 53.3409Z" fill="#080829"/>
<path d="M128.179 47.1339V56.0012H125.492V55.1682C125.186 55.5369 124.799 55.8287 124.361 56.0201C123.922 56.2115 123.444 56.297 122.966 56.2699C121.175 56.2699 119.643 54.989 119.643 52.5976V47.1339H122.33V52.1945C122.309 52.4061 122.334 52.6197 122.404 52.8207C122.473 53.0216 122.585 53.205 122.732 53.3584C122.88 53.5116 123.059 53.6311 123.257 53.7086C123.455 53.786 123.667 53.8195 123.88 53.8068C124.847 53.8068 125.528 53.2335 125.528 52.0154V47.1339H128.179Z" fill="#080829"/>
<path d="M143.405 50.5553V56.0011H140.718V50.7882C140.718 49.8925 140.297 49.3372 139.446 49.3372C138.596 49.3372 138.058 49.9552 138.058 51.0032V56.0011H135.371V50.7882C135.371 49.8925 134.95 49.3372 134.099 49.3372C133.248 49.3372 132.711 49.9552 132.711 51.0032V56.0011H130.024V47.1339H132.711V47.9489C132.99 47.5889 133.352 47.3037 133.769 47.1192C134.184 46.9347 134.64 46.8566 135.093 46.892C135.548 46.8683 136.001 46.9632 136.407 47.1674C136.814 47.3715 137.161 47.6779 137.413 48.0564C137.709 47.6609 138.099 47.3467 138.549 47.1431C138.998 46.9394 139.492 46.8531 139.984 46.892C142.08 46.892 143.405 48.343 143.405 50.5553Z" fill="#080829"/>
<path d="M145.662 47.0802C146.75 47.0802 147.633 46.198 147.633 45.1097C147.633 44.0215 146.75 43.1393 145.662 43.1393C144.574 43.1393 143.692 44.0215 143.692 45.1097C143.692 46.198 144.574 47.0802 145.662 47.0802Z" fill="#080829"/>
</svg>
