<svg width="152" height="46" viewBox="0 0 152 46" fill="none" xmlns="http://www.w3.org/2000/svg">
<path d="M13.504 37.384C15.2107 37.384 16.736 37.096 18.08 36.52C19.4453 35.944 20.5973 35.1867 21.536 34.248C22.4747 33.288 23.1467 32.2427 23.552 31.112L19.648 29.288C19.1787 30.4827 18.4107 31.4747 17.344 32.264C16.2987 33.032 15.0187 33.416 13.504 33.416C12.0107 33.416 10.6987 33.064 9.568 32.36C8.43733 31.656 7.552 30.6853 6.912 29.448C6.272 28.1893 5.952 26.728 5.952 25.064C5.952 23.4 6.272 21.9493 6.912 20.712C7.552 19.4533 8.43733 18.4827 9.568 17.8C10.6987 17.096 12.0107 16.744 13.504 16.744C15.0187 16.744 16.2987 17.1387 17.344 17.928C18.4107 18.696 19.1787 19.6773 19.648 20.872L23.552 19.048C23.1467 17.9173 22.4747 16.8827 21.536 15.944C20.5973 14.984 19.4453 14.216 18.08 13.64C16.736 13.064 15.2107 12.776 13.504 12.776C11.7973 12.776 10.2187 13.0853 8.768 13.704C7.31733 14.3013 6.05867 15.1547 4.992 16.264C3.92533 17.352 3.09333 18.6533 2.496 20.168C1.89867 21.6613 1.6 23.2933 1.6 25.064C1.6 26.8347 1.89867 28.4773 2.496 29.992C3.09333 31.4853 3.92533 32.7867 4.992 33.896C6.05867 35.0053 7.31733 35.8693 8.768 36.488C10.2187 37.0853 11.7973 37.384 13.504 37.384ZM33.9728 37.384C35.6581 37.384 37.1941 37 38.5808 36.232C39.9674 35.4427 41.0768 34.3653 41.9088 33C42.7408 31.6133 43.1568 30.0453 43.1568 28.296C43.1568 26.5467 42.7408 24.9893 41.9088 23.624C41.0981 22.2587 39.9994 21.1813 38.6128 20.392C37.2261 19.6027 35.6794 19.208 33.9728 19.208C32.2448 19.208 30.6874 19.6027 29.3008 20.392C27.9141 21.1813 26.8048 22.2587 25.9728 23.624C25.1621 24.9893 24.7568 26.5467 24.7568 28.296C24.7568 30.0453 25.1621 31.6027 25.9728 32.968C26.8048 34.3333 27.9141 35.4107 29.3008 36.2C30.7088 36.9893 32.2661 37.384 33.9728 37.384ZM33.9728 33.544C33.0341 33.544 32.1914 33.32 31.4448 32.872C30.7194 32.424 30.1434 31.8053 29.7168 31.016C29.3114 30.2053 29.1088 29.2987 29.1088 28.296C29.1088 27.2933 29.3114 26.3973 29.7168 25.608C30.1434 24.8187 30.7194 24.2 31.4448 23.752C32.1914 23.2827 33.0341 23.048 33.9728 23.048C34.9114 23.048 35.7328 23.2827 36.4368 23.752C37.1621 24.2 37.7274 24.8187 38.1328 25.608C38.5594 26.3973 38.7728 27.2933 38.7728 28.296C38.7728 29.2987 38.5594 30.2053 38.1328 31.016C37.7274 31.8053 37.1621 32.424 36.4368 32.872C35.7328 33.32 34.9114 33.544 33.9728 33.544ZM45.3758 37H49.5678V12.776H45.3758V37ZM52.4782 37H56.6702V12.776H52.4782V37ZM64.8608 37.384C67.1221 37.384 68.9354 36.6373 70.3008 35.144V37H74.2688V25.416C74.2688 24.2 73.9594 23.1227 73.3408 22.184C72.7221 21.2453 71.8688 20.52 70.7808 20.008C69.7141 19.4747 68.4661 19.208 67.0367 19.208C65.2874 19.208 63.7301 19.624 62.3647 20.456C60.9994 21.288 60.0608 22.3867 59.5487 23.752L62.9728 25.416C63.2928 24.6267 63.7941 23.9973 64.4768 23.528C65.1594 23.0373 65.9594 22.792 66.8767 22.792C67.8368 22.792 68.6048 23.048 69.1808 23.56C69.7781 24.0507 70.0768 24.6693 70.0768 25.416V25.992L64.8928 26.824C62.8448 27.1653 61.3301 27.816 60.3487 28.776C59.3674 29.736 58.8767 30.9413 58.8767 32.392C58.8767 33.928 59.4207 35.144 60.5087 36.04C61.5967 36.936 63.0474 37.384 64.8608 37.384ZM63.2288 32.232C63.2288 31.016 64.0501 30.248 65.6927 29.928L70.0768 29.192V29.896C70.0768 31.0907 69.6608 32.104 68.8288 32.936C68.0181 33.768 66.9514 34.184 65.6287 34.184C64.9248 34.184 64.3488 34.0133 63.9008 33.672C63.4528 33.3093 63.2288 32.8293 63.2288 32.232ZM86.6872 37.384C88.3726 37.384 89.8766 36.9893 91.1992 36.2C92.5219 35.3893 93.5672 34.3013 94.3352 32.936C95.1032 31.5493 95.4872 30.0027 95.4872 28.296C95.4872 26.5893 95.1032 25.0533 94.3352 23.688C93.5672 22.3013 92.5219 21.2133 91.1992 20.424C89.8766 19.6133 88.3832 19.208 86.7192 19.208C84.4579 19.208 82.6766 19.9227 81.3752 21.352V12.776H77.1832V37H81.1192V35.048C81.7592 35.7947 82.5592 36.3707 83.5192 36.776C84.5006 37.1813 85.5566 37.384 86.6872 37.384ZM86.2072 33.544C85.2899 33.544 84.4579 33.32 83.7112 32.872C82.9859 32.424 82.4099 31.8053 81.9832 31.016C81.5779 30.2267 81.3752 29.32 81.3752 28.296C81.3752 27.272 81.5779 26.3653 81.9832 25.576C82.4099 24.7867 82.9859 24.168 83.7112 23.72C84.4579 23.272 85.2899 23.048 86.2072 23.048C87.1672 23.048 88.0099 23.2827 88.7352 23.752C89.4819 24.2 90.0686 24.8187 90.4952 25.608C90.9219 26.3973 91.1352 27.2933 91.1352 28.296C91.1352 29.2987 90.9219 30.2053 90.4952 31.016C90.0686 31.8053 89.4819 32.424 88.7352 32.872C88.0099 33.32 87.1672 33.544 86.2072 33.544Z" fill="#080829"/>
<path d="M99.7072 37H103.931V32.52H99.7072V37Z" fill="#3F53D8"/>
<path d="M128.5 0C122.402 0.00687894 116.556 2.4323 112.244 6.74414C107.932 11.056 105.507 16.9021 105.5 23V42.3967C105.501 43.352 105.881 44.2679 106.557 44.9435C107.232 45.619 108.148 45.9989 109.103 46H128.5C134.6 46 140.45 43.5768 144.763 39.2635C149.077 34.9501 151.5 29.1 151.5 23C151.5 16.9 149.077 11.0499 144.763 6.73654C140.45 2.42321 134.6 0 128.5 0Z" fill="#3F53D8"/>
<path d="M115.952 17.64H120.144V13.16H115.952V17.64ZM115.952 37H120.144V19.592H115.952V37ZM131.567 37.384C133.252 37.384 134.788 37 136.175 36.232C137.561 35.4427 138.671 34.3653 139.503 33C140.335 31.6133 140.751 30.0453 140.751 28.296C140.751 26.5467 140.335 24.9893 139.503 23.624C138.692 22.2587 137.593 21.1813 136.207 20.392C134.82 19.6027 133.273 19.208 131.567 19.208C129.839 19.208 128.281 19.6027 126.895 20.392C125.508 21.1813 124.399 22.2587 123.567 23.624C122.756 24.9893 122.35 26.5467 122.35 28.296C122.35 30.0453 122.756 31.6027 123.567 32.968C124.399 34.3333 125.508 35.4107 126.895 36.2C128.303 36.9893 129.86 37.384 131.567 37.384ZM131.567 33.544C130.628 33.544 129.785 33.32 129.039 32.872C128.313 32.424 127.737 31.8053 127.311 31.016C126.905 30.2053 126.703 29.2987 126.703 28.296C126.703 27.2933 126.905 26.3973 127.311 25.608C127.737 24.8187 128.313 24.2 129.039 23.752C129.785 23.2827 130.628 23.048 131.567 23.048C132.505 23.048 133.327 23.2827 134.031 23.752C134.756 24.2 135.321 24.8187 135.727 25.608C136.153 26.3973 136.367 27.2933 136.367 28.296C136.367 29.2987 136.153 30.2053 135.727 31.016C135.321 31.8053 134.756 32.424 134.031 32.872C133.327 33.32 132.505 33.544 131.567 33.544Z" fill="white"/>
</svg>
