<svg width="179" height="100" viewBox="0 0 179 100" fill="none" xmlns="http://www.w3.org/2000/svg">
<path d="M10.983 30.047V65.5H169.561V30.047H10.983ZM167.561 63.5H86.561V32.047H167.561V63.5Z" fill="#080829"/>
<path d="M19.4121 53.713V41.926H23.4801V50.574H30.6561V53.713H19.4121Z" fill="white"/>
<path d="M46.694 47.737C46.694 51.49 44.352 53.893 38.781 53.893C33.721 53.893 30.853 51.821 30.853 47.737C30.853 44.118 33.587 41.656 38.781 41.656C44.056 41.656 46.694 43.923 46.694 47.737ZM42.61 47.782C42.61 46.082 41.904 44.719 38.766 44.719C35.898 44.719 34.966 45.935 34.966 47.782C34.966 49.659 35.821 50.875 38.779 50.875C41.756 50.875 42.61 49.584 42.61 47.782Z" fill="white"/>
<path d="M59.2779 53.713L59.1729 52.571C57.8121 53.5422 56.1557 54.0096 54.4879 53.893C51.9809 53.893 49.8929 53.142 48.7219 51.626C47.9496 50.5192 47.5596 49.1906 47.6109 47.842C47.5671 46.5217 47.9706 45.2252 48.7559 44.163C49.9409 42.692 52.0889 41.716 55.2869 41.716C58.9659 41.716 61.1279 42.842 62.0579 44.734C62.2576 45.1796 62.3748 45.6576 62.4039 46.145H58.5119C58.4139 45.8488 58.2314 45.5878 57.9869 45.394C57.2117 44.88 56.2859 44.6422 55.3589 44.719C54.8152 44.6531 54.2637 44.7033 53.7409 44.8664C53.218 45.0295 52.7358 45.3017 52.3259 45.665C51.8606 46.302 51.6421 47.0862 51.7109 47.872C51.657 48.6217 51.8579 49.3677 52.2809 49.989C52.6945 50.3743 53.1861 50.6661 53.7223 50.8449C54.2585 51.0236 54.8269 51.0851 55.3889 51.025C56.5053 51.1158 57.6136 50.7715 58.4819 50.064C58.6685 49.8308 58.797 49.5566 58.8569 49.264H54.6689V46.731H62.5059V53.713H59.2779Z" fill="white"/>
<path d="M79.488 47.737C79.488 51.49 77.145 53.893 71.575 53.893C66.515 53.893 63.647 51.821 63.647 47.737C63.647 44.118 66.381 41.656 71.575 41.656C76.846 41.656 79.488 43.923 79.488 47.737ZM75.404 47.782C75.404 46.082 74.698 44.719 71.56 44.719C68.692 44.719 67.76 45.935 67.76 47.782C67.76 49.659 68.616 50.875 71.573 50.875C74.549 50.875 75.404 49.584 75.404 47.782Z" fill="white"/>
<path d="M93.413 53.668V41.881H96.313V53.668H93.413Z" fill="#080829"/>
<path d="M111.205 48.743C110.47 49.704 109.205 50.143 107.422 50.154C107.046 50.154 102.061 50.139 102.061 50.139V53.668H99.223V41.881H107.423C108.08 41.8115 108.745 41.8812 109.373 42.0855C110.002 42.2899 110.58 42.6243 111.071 43.067C111.719 43.9112 112.034 44.9638 111.957 46.025C112.023 46.9902 111.758 47.9491 111.205 48.743ZM108.878 44.9C108.578 44.45 107.931 44.2 106.836 44.2H102.046V47.788H106.805C107.976 47.788 108.593 47.548 108.878 47.082C109.048 46.7537 109.12 46.384 109.088 46.016C109.113 45.6322 109.041 45.2483 108.878 44.9Z" fill="#080829"/>
<path d="M120.32 53.848C114.974 53.848 113.338 51.848 113.338 49.869H116.371C116.371 50.845 117.707 51.581 120.455 51.581C123.187 51.581 123.908 51.1 123.908 50.319C123.908 49.448 123.368 49.178 120.83 48.893C120.33 48.848 118.969 48.683 118.458 48.608C114.858 48.202 113.472 47.136 113.472 45.229C113.472 43.217 115.5 41.701 119.899 41.701C124.674 41.701 126.506 43.578 126.506 45.53H123.506C123.506 44.539 122.38 43.968 119.722 43.968C116.989 43.968 116.404 44.343 116.404 45.079C116.404 45.845 117.004 46.085 119.904 46.43C120.565 46.521 122.036 46.686 122.441 46.73C125.505 47.045 126.886 48.156 126.886 50.123C126.881 52.466 124.779 53.848 120.32 53.848Z" fill="#080829"/>
<path d="M135.426 53.833C131.508 53.833 128.955 52.286 128.955 49.033V41.881H131.822V49.073C131.822 50.56 133.039 51.55 135.546 51.55C137.813 51.55 139.165 50.62 139.165 49.073V41.881H142.003V49.3C142.003 52.257 139.63 53.833 135.426 53.833Z" fill="#080829"/>
<path d="M157.543 53.668V45.8L153.864 53.668H151.072L147.498 45.8V53.668H144.798V41.881H148.456L152.51 50.86L156.654 41.881H160.254V53.668H157.543Z" fill="#080829"/>
</svg>
