<svg width="80" height="80" viewBox="0 0 80 80" fill="none" xmlns="http://www.w3.org/2000/svg">
<rect opacity="0.3" width="80" height="80" rx="20" fill="#FE7F51"/>
<path d="M55.4218 22.7272L20.4854 32.5811C20.1915 32.664 19.9299 32.8346 19.7355 33.0702C19.5412 33.3057 19.4234 33.595 19.3978 33.8993C19.3723 34.2036 19.4402 34.5085 19.5926 34.7731C19.745 35.0378 19.9745 35.2497 20.2505 35.3804L36.3025 42.984C36.6156 43.1323 36.8677 43.3844 37.016 43.6974L44.6195 59.7495C44.7503 60.0255 44.9621 60.255 45.2268 60.4073C45.4914 60.5597 45.7963 60.6276 46.1006 60.6021C46.4049 60.5765 46.6942 60.4587 46.9297 60.2644C47.1653 60.0701 47.3359 59.8084 47.4188 59.5145L57.2727 24.5781C57.3451 24.3215 57.3477 24.0502 57.2804 23.7922C57.2131 23.5342 57.0782 23.2988 56.8897 23.1102C56.7011 22.9217 56.4657 22.7868 56.2077 22.7195C55.9497 22.6522 55.6785 22.6548 55.4218 22.7272Z" stroke="#080829" stroke-width="2.5" stroke-linecap="round" stroke-linejoin="round"/>
<path d="M36.7861 43.2133L45.2714 34.728" stroke="#080829" stroke-width="2.5" stroke-linecap="round" stroke-linejoin="round"/>
</svg>
