<svg width="48" height="48" viewBox="0 0 48 48" fill="none" xmlns="http://www.w3.org/2000/svg">
<path d="M10.5371 21.0001C10.5322 19.229 10.8767 17.4743 11.5511 15.8366C12.2254 14.1989 13.2163 12.7103 14.4669 11.4562C15.7175 10.2021 17.2033 9.20706 18.8391 8.52814C20.475 7.84923 22.2287 7.49976 23.9998 7.49976C25.7709 7.49976 27.5246 7.84923 29.1604 8.52814C30.7962 9.20706 32.282 10.2021 33.5327 11.4562C34.7833 12.7103 35.7741 14.1989 36.4485 15.8366C37.1228 17.4743 37.4674 19.229 37.4625 21.0001V21.0001C37.4625 27.7155 38.8674 31.6124 40.1049 33.7422C40.2382 33.9698 40.3091 34.2285 40.3105 34.4922C40.3119 34.756 40.2438 35.0154 40.1129 35.2444C39.9821 35.4734 39.7931 35.6639 39.5652 35.7965C39.3372 35.9292 39.0783 35.9994 38.8146 36.0001H9.18347C8.91969 35.9994 8.66076 35.9292 8.4328 35.7965C8.20483 35.6638 8.0159 35.4733 7.88505 35.2443C7.7542 35.0152 7.68607 34.7557 7.68752 34.492C7.68898 34.2282 7.75998 33.9695 7.89335 33.7419C9.13146 31.612 10.5371 27.7152 10.5371 21.0001H10.5371Z" stroke="black" stroke-width="3" stroke-linecap="round" stroke-linejoin="round"/>
<path d="M18 36V37.5C18 39.0913 18.6321 40.6174 19.7574 41.7426C20.8826 42.8679 22.4087 43.5 24 43.5C25.5913 43.5 27.1174 42.8679 28.2426 41.7426C29.3679 40.6174 30 39.0913 30 37.5V36" stroke="black" stroke-width="3" stroke-linecap="round" stroke-linejoin="round"/>
<path d="M34.3945 4.4978C37.4468 6.42466 39.9072 9.15745 41.5042 12.3945" stroke="black" stroke-width="3" stroke-linecap="round" stroke-linejoin="round"/>
<path d="M6.49609 12.3945C8.09313 9.15745 10.5536 6.42466 13.6058 4.4978" stroke="black" stroke-width="3" stroke-linecap="round" stroke-linejoin="round"/>
</svg>
