<svg width="44" height="44" viewBox="0 0 44 44" fill="none" xmlns="http://www.w3.org/2000/svg">
<path fill-rule="evenodd" clip-rule="evenodd" d="M34.2976 16.1264C34.2976 18.429 34.9062 19.7861 36.2454 21.3501C37.2603 22.5023 37.5846 23.9813 37.5846 25.5859C37.5846 27.1886 37.0581 28.7101 36.0031 29.9454C34.6219 31.4262 32.6741 32.3716 30.6862 32.536C27.8055 32.7815 24.923 32.9884 22.0022 32.9884C19.0796 32.9884 16.1989 32.8646 13.3182 32.536C11.3285 32.3716 9.38067 31.4262 8.00136 29.9454C6.94637 28.7101 6.41797 27.1886 6.41797 25.5859C6.41797 23.9813 6.74412 22.5023 7.7572 21.3501C9.13833 19.7861 9.70682 18.429 9.70682 16.1264V15.3454C9.70682 12.2618 10.4757 10.2455 12.0591 8.27158C14.4133 5.39295 18.1868 3.6665 21.9202 3.6665H22.0842C25.8978 3.6665 29.7934 5.47604 32.1075 8.47839C33.6089 10.4116 34.2976 12.343 34.2976 15.3454V16.1264ZM16.6364 36.778C16.6364 35.8548 17.4836 35.432 18.2671 35.251C19.1836 35.0571 24.7683 35.0571 25.6848 35.251C26.4683 35.432 27.3156 35.8548 27.3156 36.778C27.27 37.657 26.7544 38.4362 26.0419 38.931C25.1182 39.6511 24.034 40.1072 22.9007 40.2715C22.2739 40.3528 21.658 40.3546 21.0531 40.2715C19.9179 40.1072 18.8338 39.6511 17.9118 38.9292C17.1976 38.4362 16.6819 37.657 16.6364 36.778Z" fill="#3F53D8"/>
</svg>
