<svg width="48" height="48" viewBox="0 0 48 48" fill="none" xmlns="http://www.w3.org/2000/svg">
<path fill-rule="evenodd" clip-rule="evenodd" d="M27.8911 25.78C28.4653 26.36 29.396 26.36 29.9703 25.78C30.5644 25.2 30.5644 24.26 29.9901 23.68L24.3069 17.92C24.1683 17.78 24.0099 17.68 23.8317 17.6C23.6535 17.52 23.4752 17.48 23.2772 17.48C23.0792 17.48 22.8812 17.52 22.703 17.6C22.5248 17.68 22.3663 17.78 22.2277 17.92L16.5644 23.68C15.9901 24.26 15.9901 25.2 16.5644 25.78C17.1386 26.36 18.0693 26.36 18.6436 25.78L21.7921 22.58V32.24C21.7921 33.06 22.4455 33.72 23.2772 33.72C24.0891 33.72 24.7426 33.06 24.7426 32.24V22.58L27.8911 25.78ZM38.6563 18.0512C39.1218 18.0458 39.6286 18.04 40.0891 18.04C40.5842 18.04 41 18.44 41 18.94V35.02C41 39.98 37 44 32.0891 44H16.3465C11.1782 44 7 39.78 7 34.58V13.02C7 8.06 10.9802 4 15.9307 4H26.5049C27 4 27.4158 4.42 27.4158 4.92V11.36C27.4158 15.02 30.3861 18.02 34.0297 18.04C34.8626 18.04 35.602 18.0463 36.2516 18.0518C36.7603 18.0561 37.2138 18.06 37.6139 18.06C37.8957 18.06 38.2611 18.0558 38.6563 18.0512ZM39.2093 15.132C37.5816 15.138 35.6648 15.132 34.2846 15.118C32.0945 15.118 30.2905 13.296 30.2905 11.084V5.812C30.2905 4.95 31.3242 4.522 31.9162 5.144C33.441 6.74378 35.7751 9.19541 37.748 11.2677C38.5474 12.1074 39.2875 12.8848 39.8905 13.518C40.4667 14.124 40.043 15.13 39.2093 15.132Z" fill="#130F26"/>
</svg>
