<svg width="48" height="48" viewBox="0 0 48 48" fill="none" xmlns="http://www.w3.org/2000/svg">
<path fill-rule="evenodd" clip-rule="evenodd" d="M24.3069 33.28L29.9901 27.54C30.5644 26.94 30.5644 26 29.9703 25.42C29.396 24.84 28.4653 24.84 27.8911 25.42L24.7426 28.62V18.98C24.7426 18.14 24.0891 17.48 23.2772 17.48C22.4653 17.48 21.7921 18.14 21.7921 18.98V28.62L18.6436 25.42C18.0693 24.84 17.1386 24.84 16.5644 25.42C15.9901 26 15.9901 26.94 16.5644 27.54L22.2277 33.28C22.3663 33.42 22.5248 33.52 22.703 33.6C22.8812 33.68 23.0792 33.72 23.2772 33.72C23.4752 33.72 23.6535 33.68 23.8317 33.6C24.0099 33.52 24.1683 33.42 24.3069 33.28ZM38.6563 18.0512C39.1218 18.0458 39.6286 18.04 40.0891 18.04C40.604 18.04 41 18.44 41 18.94V35.02C41 39.98 37 44 32.0891 44H16.3465C11.1782 44 7 39.78 7 34.58V13.02C7 8.06 10.9802 4 15.9307 4H26.5049C27 4 27.4158 4.42 27.4158 4.92V11.36C27.4158 15.02 30.3861 18.02 34.0297 18.04C34.8666 18.04 35.6155 18.0464 36.2692 18.0519C36.7756 18.0562 37.2249 18.06 37.6139 18.06C37.8957 18.06 38.2611 18.0558 38.6563 18.0512ZM39.2089 15.1322C37.5832 15.1382 35.6644 15.1322 34.2842 15.1182C32.0941 15.1182 30.2901 13.2962 30.2901 11.0842V5.8122C30.2901 4.9502 31.3257 4.5222 31.9158 5.1442C33.4413 6.74476 35.7769 9.19798 37.7505 11.2709C38.5488 12.1094 39.2878 12.8857 39.8901 13.5182C40.4683 14.1242 40.0446 15.1302 39.2089 15.1322Z" fill="#130F26"/>
</svg>
