<svg width="48" height="48" viewBox="0 0 48 48" fill="none" xmlns="http://www.w3.org/2000/svg">
<path fill-rule="evenodd" clip-rule="evenodd" d="M25.099 27.46H28.5248C29.3366 27.46 30.0099 26.8 30.0099 25.98C30.0099 25.14 29.3366 24.48 28.5248 24.48H25.099V21.02C25.099 20.2 24.4455 19.54 23.6337 19.54C22.8218 19.54 22.1485 20.2 22.1485 21.02V24.48H18.7426C17.9307 24.48 17.2574 25.14 17.2574 25.98C17.2574 26.8 17.9307 27.46 18.7426 27.46H22.1485V30.92C22.1485 31.74 22.8218 32.4 23.6337 32.4C24.4455 32.4 25.099 31.74 25.099 30.92V27.46ZM38.6761 18.0512C39.1416 18.0458 39.6484 18.04 40.1089 18.04C40.604 18.04 41 18.44 41 18.94V35.02C41 39.98 37.0198 44 32.0891 44H16.3465C11.198 44 7 39.78 7 34.58V13.02C7 8.06 11 4 15.9307 4H26.5049C27.0198 4 27.4158 4.42 27.4158 4.92V11.36C27.4158 15.02 30.4059 18.02 34.0297 18.04C34.8761 18.04 35.6224 18.0463 36.2754 18.0519C36.7834 18.0562 37.2351 18.06 37.6337 18.06C37.9155 18.06 38.2809 18.0558 38.6761 18.0512ZM39.22 15.1324C37.5923 15.1384 35.6735 15.1324 34.2933 15.1184C32.1032 15.1184 30.2992 13.2964 30.2992 11.0844V5.8124C30.2992 4.9504 31.3349 4.5224 31.9269 5.1444C32.9988 6.27009 34.4719 7.81755 35.9382 9.35784C37.4001 10.8935 38.8552 12.4221 39.8992 13.5184C40.4774 14.1244 40.0537 15.1304 39.22 15.1324Z" fill="#130F26"/>
</svg>
