<svg width="44" height="44" viewBox="0 0 44 44" fill="none" xmlns="http://www.w3.org/2000/svg">
<path d="M39.2983 4.73366C38.3812 3.79245 37.024 3.44181 35.7585 3.81091L6.24808 12.3925C4.91286 12.7634 3.96647 13.8283 3.71154 15.181C3.4511 16.5578 4.3608 18.3055 5.54929 19.0363L14.7766 24.7075C15.723 25.2888 16.9445 25.143 17.7276 24.3532L28.2938 13.7212C28.8257 13.1676 29.706 13.1676 30.2379 13.7212C30.7698 14.2564 30.7698 15.1238 30.2379 15.6775L19.6534 26.3112C18.8684 27.0993 18.7217 28.3265 19.2994 29.2788L24.9374 38.5986C25.5977 39.7059 26.7348 40.3334 27.982 40.3334C28.1287 40.3334 28.2938 40.3334 28.4405 40.3149C29.8711 40.1303 31.0082 39.1522 31.4301 37.7681L40.1786 8.29547C40.5638 7.04053 40.2153 5.67486 39.2983 4.73366Z" fill="#080829"/>
</svg>
