<svg width="44" height="44" viewBox="0 0 44 44" fill="none" xmlns="http://www.w3.org/2000/svg">
<path d="M39.2995 4.73347C38.3825 3.79227 37.0252 3.44162 35.7597 3.81072L6.2493 12.3923C4.91408 12.7632 3.9677 13.8281 3.71276 15.1808C3.45232 16.5576 4.36202 18.3053 5.55051 19.0361L14.7778 24.7073C15.7242 25.2887 16.9457 25.1429 17.7288 24.353L28.295 13.7211C28.8269 13.1674 29.7072 13.1674 30.2391 13.7211C30.771 14.2563 30.771 15.1236 30.2391 15.6773L19.6546 26.3111C18.8696 27.0991 18.7229 28.3263 19.3006 29.2786L24.9386 38.5984C25.5989 39.7057 26.736 40.3332 27.9832 40.3332C28.1299 40.3332 28.295 40.3332 28.4417 40.3147C29.8723 40.1302 31.0094 39.1521 31.4313 37.7679L40.1799 8.29529C40.565 7.04035 40.2165 5.67468 39.2995 4.73347" fill="#3F53D8"/>
</svg>
