<svg width="21" height="20" viewBox="0 0 21 20" fill="none" xmlns="http://www.w3.org/2000/svg">
<g clip-path="url(#clip0_616_3252)">
<path d="M20.2227 3.79875C19.4789 4.125 18.6864 4.34125 17.8602 4.44625C18.7102 3.93875 19.3589 3.14125 19.6639 2.18C18.8714 2.6525 17.9964 2.98625 17.0639 3.1725C16.3114 2.37125 15.2389 1.875 14.0689 1.875C11.7989 1.875 9.97141 3.7175 9.97141 5.97625C9.97141 6.30125 9.99891 6.61375 10.0664 6.91125C6.65766 6.745 3.64141 5.11125 1.61516 2.6225C1.26141 3.23625 1.05391 3.93875 1.05391 4.695C1.05391 6.115 1.78516 7.37375 2.87516 8.1025C2.21641 8.09 1.57016 7.89875 1.02266 7.5975C1.02266 7.61 1.02266 7.62625 1.02266 7.6425C1.02266 9.635 2.44391 11.29 4.30766 11.6712C3.97391 11.7625 3.61016 11.8062 3.23266 11.8062C2.97016 11.8062 2.70516 11.7913 2.45641 11.7362C2.98766 13.36 4.49516 14.5538 6.28766 14.5925C4.89266 15.6838 3.12141 16.3412 1.20391 16.3412C0.867656 16.3412 0.545156 16.3263 0.222656 16.285C2.03891 17.4563 4.19141 18.125 6.51266 18.125C14.0577 18.125 18.1827 11.875 18.1827 6.4575C18.1827 6.27625 18.1764 6.10125 18.1677 5.9275C18.9814 5.35 19.6652 4.62875 20.2227 3.79875Z" fill="#080829"/>
</g>
<defs>
<clipPath id="clip0_616_3252">
<rect width="20" height="20" fill="white" transform="translate(0.222656)"/>
</clipPath>
</defs>
</svg>
