<svg width="25" height="24" viewBox="0 0 25 24" fill="none" xmlns="http://www.w3.org/2000/svg">
<g clip-path="url(#clip0_616_5727)">
<path d="M24.6667 4.5585C23.7742 4.95 22.8232 5.2095 21.8317 5.3355C22.8517 4.7265 23.6302 3.7695 23.9962 2.616C23.0452 3.183 21.9952 3.5835 20.8762 3.807C19.9732 2.8455 18.6862 2.25 17.2822 2.25C14.5582 2.25 12.3652 4.461 12.3652 7.1715C12.3652 7.5615 12.3982 7.9365 12.4792 8.2935C8.38875 8.094 4.76925 6.1335 2.33775 3.147C1.91325 3.8835 1.66425 4.7265 1.66425 5.634C1.66425 7.338 2.54175 8.8485 3.84975 9.723C3.05925 9.708 2.28375 9.4785 1.62675 9.117C1.62675 9.132 1.62675 9.1515 1.62675 9.171C1.62675 11.562 3.33225 13.548 5.56875 14.0055C5.16825 14.115 4.73175 14.1675 4.27875 14.1675C3.96375 14.1675 3.64575 14.1495 3.34725 14.0835C3.98475 16.032 5.79375 17.4645 7.94475 17.511C6.27075 18.8205 4.14525 19.6095 1.84425 19.6095C1.44075 19.6095 1.05375 19.5915 0.666748 19.542C2.84625 20.9475 5.42925 21.75 8.21475 21.75C17.2687 21.75 22.2187 14.25 22.2187 7.749C22.2187 7.5315 22.2112 7.3215 22.2007 7.113C23.1772 6.42 23.9977 5.5545 24.6667 4.5585Z" fill="#080829"/>
</g>
<defs>
<clipPath id="clip0_616_5727">
<rect width="24" height="24" fill="white" transform="translate(0.666748)"/>
</clipPath>
</defs>
</svg>
