<svg width="44" height="44" viewBox="0 0 44 44" fill="none" xmlns="http://www.w3.org/2000/svg">
<path fill-rule="evenodd" clip-rule="evenodd" d="M32.5776 15.3666H40.3346C40.3346 9.13842 36.6028 5.5 30.2798 5.5H13.7228C7.39982 5.5 3.66797 9.13842 3.66797 15.2872V28.7128C3.66797 34.8616 7.39982 38.5 13.7228 38.5H30.2798C36.6028 38.5 40.3346 34.8616 40.3346 28.7128V28.1408H32.5776C28.9775 28.1408 26.0591 25.2955 26.0591 21.7855C26.0591 18.2756 28.9775 15.4302 32.5776 15.4302V15.3666ZM32.5776 18.0994H38.9657C39.7218 18.0994 40.3346 18.697 40.3346 19.434V24.0734C40.3258 24.8069 39.7181 25.3995 38.9657 25.408H32.7243C30.9017 25.4319 29.308 24.2153 28.8946 22.4846C28.6876 21.4102 28.9782 20.3015 29.6886 19.4557C30.399 18.6099 31.4564 18.1135 32.5776 18.0994ZM32.8546 22.9771H33.4576C34.2316 22.9771 34.8591 22.3654 34.8591 21.6107C34.8591 20.8561 34.2316 20.2443 33.4576 20.2443H32.8546C32.4844 20.2401 32.1279 20.3805 31.8646 20.6342C31.6013 20.888 31.4531 21.2339 31.4532 21.5948C31.4531 22.3521 32.078 22.9684 32.8546 22.9771ZM12.3539 15.3666H22.702C23.4761 15.3666 24.1035 14.7549 24.1035 14.0002C24.1035 13.2456 23.4761 12.6338 22.702 12.6338H12.3539C11.5862 12.6338 10.9613 13.2359 10.9524 13.9844C10.9524 14.7416 11.5772 15.3579 12.3539 15.3666Z" fill="#3F53D8"/>
</svg>
